<svg width="202" height="89" viewBox="0 0 202 89" fill="none" xmlns="http://www.w3.org/2000/svg">
<path d="M63.285 56.511C63.285 56.2642 63.378 56.159 63.5961 56.159H67.0461C67.1713 56.159 67.2321 56.2642 67.2321 56.511V56.6849C67.2321 56.9317 67.1713 57.0369 67.0461 57.0369H64.1574V59.6017H66.7351C66.8602 59.6017 66.921 59.7069 66.921 59.9536V60.1276C66.921 60.3744 66.8602 60.4795 66.7351 60.4795H64.1574V63.2224H67.0461C67.1713 63.2224 67.2321 63.3275 67.2321 63.5743V63.7483C67.2321 63.995 67.1713 64.1002 67.0461 64.1002H63.5675C63.3494 64.1002 63.2564 63.995 63.2564 63.7483V56.5069L63.285 56.511ZM68.537 63.8251L68.5692 59.8525V59.723C68.5585 58.8978 68.4441 58.4811 68.4441 58.4487C68.4441 58.2384 68.8481 58.202 68.9732 58.202C69.2235 58.202 69.2521 58.6591 69.3164 58.9382C69.7204 58.4123 70.3103 58.0927 70.8716 58.0927C71.8977 58.0927 72.4876 58.7602 72.4876 59.9213V63.8251C72.4876 63.9667 72.3625 64.0719 72.0836 64.0719H72.0515C71.7726 64.0719 71.6475 63.9667 71.6475 63.8251V60.0265C71.6475 59.359 71.2756 58.9382 70.6214 58.9382C70.1852 58.9382 69.6882 59.2538 69.3772 59.7109V63.8251C69.3772 63.9667 69.2521 64.0719 68.9732 64.0719H68.941C68.6621 64.0679 68.537 63.9627 68.537 63.8251ZM74.69 63.5784C74.3181 63.4044 74.0679 63.1212 74.0679 62.6641C74.0679 62.1018 74.4719 61.855 74.8151 61.7134C74.2252 61.3979 73.9141 60.7627 73.9141 60.0265C73.9141 58.9706 74.597 58.0927 75.902 58.0927C76.1522 58.0927 76.3667 58.1291 76.5527 58.1615H78.2616C78.3867 58.1615 78.4475 58.2667 78.4475 58.5135V58.655C78.4475 58.9018 78.3867 59.007 78.2616 59.007H77.5787C77.7968 59.3225 77.922 59.6745 77.922 60.0629C77.922 61.1187 77.2391 61.9966 75.9341 61.9966H75.8412C75.5909 61.9966 75.001 62.0654 75.001 62.4537C75.001 63.3316 78.3581 62.4537 78.3581 64.6666C78.3581 65.6496 77.4894 66.4264 75.8734 66.4264H75.7625C74.5148 66.4102 73.6353 66.0785 73.6353 64.9498C73.5709 64.2823 74.0357 63.8251 74.69 63.5784ZM75.9341 65.5809C76.8351 65.5809 77.425 65.1925 77.425 64.6666C77.425 63.9991 76.3703 63.9303 75.4372 63.7523C75.0332 63.9263 74.4433 64.3146 74.4433 64.8082C74.4397 65.4393 75.1261 65.5809 75.9341 65.5809ZM77.021 60.0265C77.021 59.1648 76.5419 58.9099 75.9377 58.9018H75.902C75.2799 58.9018 74.7829 59.185 74.7829 60.0265C74.7829 60.9043 75.2799 61.1511 75.902 61.1511H75.9699C76.5598 61.1309 77.021 60.872 77.021 60.0265ZM82.4267 60.3784V59.8525C82.4267 59.359 82.1479 58.9018 81.3399 58.9018C80.4389 58.9018 79.8812 59.359 79.7847 59.359C79.6595 59.359 79.4414 58.9382 79.4414 58.7966C79.4414 58.5135 80.3102 58.0927 81.3041 58.0927C82.5483 58.0927 83.2634 58.7602 83.2634 59.8525V62.3485C83.2634 63.2628 83.3885 63.72 83.3885 63.7564C83.3885 63.9667 82.9845 64.0031 82.8594 64.0031C82.6091 64.0031 82.5805 63.546 82.5161 63.2305C82.1443 63.6876 81.583 64.076 80.8393 64.076C79.8776 64.076 79.1304 63.55 79.1304 62.389C79.134 60.52 80.9359 60.3784 82.4267 60.3784ZM80.8715 63.2628C81.5866 63.2628 82.0227 62.8745 82.4267 62.4901V61.1551H82.223C81.229 61.1592 80.0349 61.232 80.0349 62.3162C80.0349 62.9432 80.3138 63.2628 80.8715 63.2628ZM85.5336 63.5784C85.1618 63.4044 84.9115 63.1212 84.9115 62.6641C84.9115 62.1018 85.3155 61.855 85.6587 61.7134C85.0688 61.3979 84.7578 60.7627 84.7578 60.0265C84.7578 58.9706 85.4407 58.0927 86.7456 58.0927C86.9959 58.0927 87.2104 58.1291 87.3963 58.1615H89.1053C89.2304 58.1615 89.2912 58.2667 89.2912 58.5135V58.655C89.2912 58.9018 89.2304 59.007 89.1053 59.007H88.4224C88.6405 59.3225 88.7656 59.6745 88.7656 60.0629C88.7656 61.1187 88.0827 61.9966 86.7778 61.9966H86.6848C86.4346 61.9966 85.8447 62.0654 85.8447 62.4537C85.8447 63.3316 89.2018 62.4537 89.2018 64.6666C89.2018 65.6496 88.333 66.4264 86.717 66.4264H86.6062C85.3584 66.4102 84.4789 66.0785 84.4789 64.9498C84.4146 64.2823 84.8507 63.8251 85.5336 63.5784ZM86.7456 65.5809C87.6466 65.5809 88.2365 65.1925 88.2365 64.6666C88.2365 63.9991 87.1782 63.9303 86.2487 63.7523C85.8447 63.9263 85.2547 64.3146 85.2547 64.8082C85.2547 65.4393 85.9376 65.5809 86.7456 65.5809ZM87.8325 60.0265C87.8325 59.1648 87.3534 58.9099 86.7492 58.9018H86.7134C86.0914 58.9018 85.5944 59.185 85.5944 60.0265C85.5944 60.9043 86.0914 61.1511 86.7134 61.1511H86.7814C87.3713 61.1309 87.8325 60.872 87.8325 60.0265ZM90.3494 56.511V55.8435C90.3494 55.7019 90.4746 55.5967 90.7534 55.5967H90.8786C91.1574 55.5967 91.2826 55.7019 91.2826 55.8435V56.511C91.2826 56.6525 91.1574 56.7577 90.8786 56.7577H90.7534C90.4746 56.7577 90.3494 56.6525 90.3494 56.511ZM90.3816 58.3759C90.3816 58.2343 90.5067 58.1291 90.7856 58.1291H90.8178C91.0967 58.1291 91.2218 58.2343 91.2218 58.3759V63.7887C91.2218 63.9303 91.0967 64.0355 90.8178 64.0355H90.7856C90.5067 64.0355 90.3816 63.9303 90.3816 63.7887V58.3759ZM92.9594 59.8525C92.9594 58.9382 92.8342 58.4811 92.8342 58.4447C92.8342 58.2343 93.2382 58.1979 93.3634 58.1979C93.6136 58.1979 93.6422 58.655 93.7066 58.9342C94.1106 58.4083 94.7005 58.0887 95.2618 58.0887C96.2879 58.0887 96.8778 58.7562 96.8778 59.9172V63.8211C96.8778 63.9627 96.7527 64.0679 96.4738 64.0679H96.4416C96.1627 64.0679 96.0376 63.9627 96.0376 63.8211V60.0224C96.0376 59.3549 95.6658 58.9342 95.0115 58.9342C94.5753 58.9342 94.0784 59.2497 93.7673 59.7069V63.8211C93.7673 63.9627 93.6422 64.0679 93.3634 64.0679H93.3312C93.0523 64.0679 92.9272 63.9627 92.9272 63.8211L92.9594 59.8525ZM99.0801 63.5784C98.7083 63.4044 98.458 63.1212 98.458 62.6641C98.458 62.1018 98.862 61.855 99.2053 61.7134C98.6154 61.3979 98.3043 60.7627 98.3043 60.0265C98.3043 58.9706 98.9872 58.0927 100.292 58.0927C100.542 58.0927 100.757 58.1291 100.943 58.1615H102.652C102.777 58.1615 102.838 58.2667 102.838 58.5135V58.655C102.838 58.9018 102.777 59.007 102.652 59.007H101.937C102.155 59.3225 102.28 59.6745 102.28 60.0629C102.28 61.1187 101.597 61.9966 100.292 61.9966H100.199C99.9489 61.9966 99.359 62.0654 99.359 62.4537C99.359 63.3316 102.716 62.4537 102.716 64.6666C102.716 65.6496 101.847 66.4264 100.231 66.4264H100.121C98.8728 66.4102 97.9933 66.0785 97.9933 64.9498C97.9611 64.2823 98.4294 63.8251 99.0801 63.5784ZM100.324 65.5809C101.225 65.5809 101.815 65.1925 101.815 64.6666C101.815 63.9991 100.76 63.9303 99.8273 63.7523C99.4233 63.9263 98.8334 64.3146 98.8334 64.8082C98.8334 65.4393 99.4841 65.5809 100.324 65.5809ZM101.411 60.0265C101.411 59.1648 100.932 58.9099 100.328 58.9018H100.292C99.67 58.9018 99.1731 59.185 99.1731 60.0265C99.1731 60.9043 99.67 61.1511 100.292 61.1511H100.36C100.95 61.1309 101.411 60.872 101.411 60.0265ZM106.474 58.9706H105.977C105.852 58.9706 105.791 58.8654 105.791 58.6186V58.477C105.791 58.2303 105.852 58.1251 105.977 58.1251H106.474L106.599 56.9317C106.599 56.7901 106.692 56.6849 106.91 56.6849H107.003C107.221 56.6849 107.314 56.7901 107.314 56.9317V58.1251H108.154C108.279 58.1251 108.34 58.2303 108.34 58.477V58.6186C108.34 58.8654 108.279 58.9706 108.154 58.9706H107.314V62.4497C107.314 63.1172 107.564 63.2952 107.843 63.2952C108.122 63.2952 108.186 63.2264 108.279 63.2264C108.404 63.2264 108.497 63.6471 108.497 63.7523C108.497 64.0476 108.086 64.1002 107.829 64.1043H107.782C107.292 64.1043 106.531 63.8656 106.509 62.6196L106.474 58.9706ZM109.738 55.8435C109.738 55.7019 109.863 55.5967 110.142 55.5967H110.174C110.453 55.5967 110.578 55.7019 110.578 55.8435V58.8654C110.921 58.477 111.447 58.0927 112.101 58.0927C112.752 58.0927 113.685 58.3759 113.685 59.9213V63.8251C113.685 63.9667 113.56 64.0719 113.281 64.0719H113.249C112.97 64.0719 112.845 63.9667 112.845 63.8251V60.0265C112.845 59.359 112.502 58.9382 111.819 58.9382C111.071 58.9382 110.574 59.7109 110.574 59.7109V63.8251C110.574 63.9667 110.449 64.0719 110.17 64.0719H110.138C109.859 64.0719 109.734 63.9667 109.734 63.8251L109.738 55.8435ZM117.289 58.0927C118.654 58.0927 119.341 59.1122 119.341 61.0095C119.341 61.1511 119.123 61.4666 118.998 61.4666H115.859C115.952 62.6965 116.416 63.2588 117.382 63.2588C118.25 63.2588 118.719 62.8016 118.84 62.8016C118.966 62.8016 119.184 63.2224 119.184 63.364C119.184 63.6471 118.408 64.0679 117.414 64.0679C115.766 64.0679 114.99 63.1172 114.99 61.1147C114.958 59.1486 115.766 58.0927 117.289 58.0927ZM118.436 60.6575C118.436 59.4965 118.032 58.8978 117.257 58.8978C116.388 58.8978 115.952 59.4965 115.859 60.6575H118.436ZM123.098 56.4058C123.098 56.2642 123.224 56.159 123.502 56.159H123.595C123.874 56.159 123.999 56.2642 123.999 56.4058V63.8251C123.999 63.9667 123.874 64.0719 123.595 64.0719H123.502C123.224 64.0719 123.098 63.9667 123.098 63.8251V56.4058ZM125.769 63.8251L125.801 59.8525V59.723C125.791 58.8978 125.68 58.4811 125.68 58.4487C125.68 58.2384 126.084 58.202 126.209 58.202C126.459 58.202 126.488 58.6591 126.552 58.9382C126.956 58.4123 127.546 58.0927 128.107 58.0927C129.133 58.0927 129.723 58.7602 129.723 59.9213V63.8251C129.723 63.9667 129.598 64.0719 129.319 64.0719H129.287C129.008 64.0719 128.883 63.9667 128.883 63.8251V60.0265C128.883 59.359 128.511 58.9382 127.857 58.9382C127.421 58.9382 126.924 59.2538 126.613 59.7109V63.8251C126.613 63.9667 126.488 64.0719 126.209 64.0719H126.177C125.894 64.0679 125.769 63.9627 125.769 63.8251ZM131.518 58.9706H131.021C130.896 58.9706 130.835 58.8654 130.835 58.6186V58.477C130.835 58.2303 130.896 58.1251 131.021 58.1251H131.518L131.643 56.9317C131.643 56.7901 131.768 56.6849 131.954 56.6849H132.047C132.265 56.6849 132.358 56.7901 132.358 56.9317V58.1251H133.198C133.324 58.1251 133.384 58.2303 133.384 58.477V58.6186C133.384 58.8654 133.324 58.9706 133.198 58.9706H132.358V62.4497C132.358 63.1172 132.609 63.2952 132.887 63.2952C133.166 63.2952 133.231 63.2264 133.324 63.2264C133.449 63.2264 133.542 63.6471 133.542 63.7523C133.542 64.0476 133.131 64.1002 132.873 64.1043H132.827C132.337 64.1043 131.575 63.8656 131.554 62.6196L131.518 58.9706ZM136.706 58.0927C138.071 58.0927 138.758 59.1122 138.758 61.0095C138.758 61.1511 138.54 61.4666 138.415 61.4666H135.276C135.369 62.6965 135.833 63.2588 136.799 63.2588C137.667 63.2588 138.136 62.8016 138.257 62.8016C138.383 62.8016 138.601 63.2224 138.601 63.364C138.601 63.6471 137.825 64.0679 136.831 64.0679C135.183 64.0679 134.407 63.1172 134.407 61.1147C134.407 59.1486 135.186 58.0927 136.706 58.0927ZM137.857 60.6575C137.857 59.4965 137.453 58.8978 136.677 58.8978C135.808 58.8978 135.372 59.4965 135.279 60.6575H137.857ZM140.095 63.7887V59.723C140.084 58.8978 139.974 58.4811 139.974 58.4487C139.974 58.2384 140.378 58.202 140.503 58.202C140.753 58.202 140.782 58.6591 140.846 58.9382C141.189 58.4123 141.593 58.0927 141.997 58.0927C142.369 58.0927 142.587 58.2667 142.587 58.5135C142.587 58.7238 142.494 59.1122 142.401 59.1122C142.276 59.1122 142.183 59.007 141.843 59.007C141.314 59.007 140.942 59.6745 140.942 59.6745V63.7887C140.942 63.9303 140.817 64.0355 140.538 64.0355H140.506C140.217 64.0355 140.095 63.9303 140.095 63.7887ZM143.667 59.8525C143.667 58.9382 143.542 58.4811 143.542 58.4447C143.542 58.2343 143.946 58.1979 144.071 58.1979C144.321 58.1979 144.35 58.655 144.414 58.9342C144.818 58.4083 145.408 58.0887 145.969 58.0887C146.995 58.0887 147.585 58.7562 147.585 59.9172V63.8211C147.585 63.9627 147.46 64.0679 147.181 64.0679H147.149C146.87 64.0679 146.745 63.9627 146.745 63.8211V60.0224C146.745 59.3549 146.373 58.9342 145.719 58.9342C145.283 58.9342 144.786 59.2497 144.475 59.7069V63.8211C144.475 63.9627 144.35 64.0679 144.071 64.0679H144.039C143.76 64.0679 143.635 63.9627 143.635 63.8211L143.667 59.8525ZM151.218 58.0927C152.583 58.0927 153.27 59.1122 153.27 61.0095C153.27 61.1511 153.052 61.4666 152.927 61.4666H149.787C149.88 62.6965 150.345 63.2588 151.311 63.2588C152.179 63.2588 152.648 62.8016 152.769 62.8016C152.894 62.8016 153.112 63.2224 153.112 63.364C153.112 63.6471 152.337 64.0679 151.343 64.0679C149.695 64.0679 148.919 63.1172 148.919 61.1147C148.887 59.1486 149.695 58.0927 151.218 58.0927ZM152.365 60.6575C152.365 59.4965 151.961 58.8978 151.185 58.8978C150.317 58.8978 149.88 59.4965 149.787 60.6575H152.365ZM154.761 58.9706H154.264C154.139 58.9706 154.078 58.8654 154.078 58.6186V58.477C154.078 58.2303 154.139 58.1251 154.264 58.1251H154.761L154.886 56.9317C154.886 56.7901 154.979 56.6849 155.197 56.6849H155.29C155.508 56.6849 155.601 56.7901 155.601 56.9317V58.1251H156.441C156.566 58.1251 156.627 58.2303 156.627 58.477V58.6186C156.627 58.8654 156.566 58.9706 156.441 58.9706H155.601V62.4497C155.601 63.1172 155.851 63.2952 156.13 63.2952C156.409 63.2952 156.473 63.2264 156.566 63.2264C156.691 63.2264 156.784 63.6471 156.784 63.7523C156.784 64.0476 156.373 64.1002 156.116 64.1043H156.069C155.579 64.1043 154.818 63.8656 154.796 62.6196L154.761 58.9706Z" fill="#848484"/>
<path d="M71.1147 27.857C73.7246 27.857 76.1486 28.9129 76.1486 29.7219C76.1486 30.2155 75.5909 31.4453 75.2477 31.4453C74.9688 31.4453 73.6925 30.1427 71.1469 30.1427C66.4848 30.1427 64.9653 33.201 64.9653 38.4035C64.9653 42.9749 66.1773 46.8423 70.868 46.8423H71.0468C72.3518 46.8261 73.6031 46.6603 74.2538 46.458V40.4464H71.1791C70.8073 40.4464 70.6499 40.1633 70.6499 39.5686V39.075C70.6499 38.4439 70.8037 38.1972 71.1791 38.1972H75.809C76.3667 38.1972 76.5848 38.4804 76.5848 39.075V46.9839C76.5848 48.6709 73.7246 49.128 70.7107 49.128C65.4587 49.128 62.5699 45.7864 62.5699 38.6867C62.5735 31.2309 65.616 27.857 71.1147 27.857ZM79.3199 48.3553V37.8776C79.3199 35.4463 79.016 34.2852 79.0088 34.1234V34.1194C79.0088 33.557 80.0957 33.4155 80.4389 33.4155C81.061 33.4155 81.2147 34.6089 81.372 35.3856C82.273 33.9454 83.3313 33.1363 84.4181 33.1363C85.4442 33.1363 85.9412 33.6299 85.9412 34.2974C85.9412 34.8597 85.7231 35.9155 85.412 35.9155C85.0688 35.9155 84.8543 35.6 83.9533 35.6C82.5876 35.6 81.5293 37.4285 81.5293 37.4285V48.3634C81.5293 48.7841 81.2183 49.0309 80.4747 49.0309H80.3817C79.6309 49.0228 79.3199 48.776 79.3199 48.3553ZM93.1452 33.1323C96.7491 33.1323 98.5831 35.8387 98.5831 40.9036C98.5831 41.2555 98.0254 42.1334 97.7144 42.1334H89.3877C89.6058 45.4385 90.8464 46.9515 93.4563 46.9515C95.7552 46.9515 97.0279 45.6853 97.3104 45.6853C97.6822 45.6853 98.2435 46.8464 98.2435 47.1619C98.2435 47.8658 96.1627 49.0592 93.4885 49.0592C89.1517 49.0592 87.0674 46.5794 87.028 41.3445V41.1868C86.9923 35.9439 89.1052 33.1323 93.1452 33.1323ZM96.2235 40.0217C96.2235 36.8945 95.1652 35.3087 93.0559 35.3087C90.757 35.3087 89.545 36.8905 89.3591 40.0217H96.2235ZM106.817 33.1323C110.421 33.1323 112.255 35.8387 112.255 40.9036C112.255 41.2555 111.697 42.1334 111.386 42.1334H103.059C103.277 45.4385 104.518 46.9515 107.132 46.9515C109.43 46.9515 110.703 45.6853 110.986 45.6853C111.357 45.6853 111.919 46.8464 111.919 47.1619C111.919 47.8658 109.838 49.0592 107.164 49.0592C102.784 49.0592 100.7 46.5268 100.7 41.1827C100.696 35.9439 102.777 33.1323 106.817 33.1323ZM109.924 40.0217C109.924 36.8945 108.869 35.3087 106.756 35.3087C104.457 35.3087 103.245 36.8905 103.059 40.0217H109.924ZM114.647 48.2825V37.6915C114.632 35.3896 114.343 34.2812 114.336 34.1234V34.1194C114.336 33.557 115.422 33.4155 115.766 33.4155C116.388 33.4155 116.541 34.6089 116.699 35.3856C117.818 33.9778 119.341 33.1363 120.8 33.1363C123.502 33.1363 125.086 34.9649 125.086 37.9545V48.2906C125.086 48.7113 124.775 48.9581 124.028 48.9581H123.935C123.188 48.9581 122.877 48.7113 122.877 48.2906V38.1648C122.877 36.3363 121.915 35.2804 120.174 35.2804C118.994 35.2804 117.718 36.0895 116.849 37.3557V48.2906C116.849 48.7113 116.538 48.9581 115.791 48.9581H115.698C114.958 48.95 114.647 48.7073 114.647 48.2825Z" fill="#262626"/>
<path d="M129.809 43.8891C130.274 43.8891 131.579 45.2606 133.692 45.2606H133.767C134.872 45.2444 136.177 44.8317 136.177 43.0801C136.177 39.5646 128.565 40.936 128.565 33.905C128.565 29.5116 131.733 27.7882 134.811 27.7882C137.607 27.7882 139.566 28.8765 139.566 29.8636C139.566 30.6726 138.758 32.4648 138.107 32.4648C137.764 32.4648 136.956 31.7285 135.186 31.7285C133.134 31.7285 132.73 32.8167 132.73 33.4883C132.73 36.8986 140.342 35.5272 140.342 42.5258C140.342 47.4815 137.267 49.1361 134.375 49.1361C130.367 49.1361 128.193 47.5179 128.193 46.4985C128.193 45.6125 129.251 43.8891 129.809 43.8891ZM148.297 33.0959C152.49 33.0959 154.668 35.9439 154.668 41.1099C154.668 46.3124 152.494 49.1604 148.297 49.1604C144.099 49.1604 141.897 46.3124 141.897 41.1099C141.897 35.9075 144.103 33.0959 148.297 33.0959ZM150.721 41.1989V41.1099C150.721 38.1203 149.973 36.575 148.297 36.575C146.62 36.575 145.84 38.1203 145.84 41.1099C145.84 44.0995 146.616 45.6813 148.297 45.6813C149.959 45.6813 150.706 44.1319 150.721 41.1989ZM163.148 33.0959H163.259C165.111 33.1242 167.528 33.8241 167.528 35.1712C167.528 35.7335 166.566 37.4569 166.13 37.4569C166.037 37.4569 165.88 37.3517 165.665 37.2465L165.561 37.1858C165.097 36.9148 164.403 36.579 163.366 36.579C161.275 36.579 160.402 38.0273 160.384 41.025V41.118C160.384 44.1764 161.192 45.6894 163.212 45.6894C164.457 45.6894 165.293 45.2686 165.79 44.9855L165.872 44.945C166.048 44.8641 166.173 44.8075 166.255 44.8075C166.845 44.8075 167.621 46.4944 167.621 47.0567C167.621 48.7437 163.86 49.132 163.023 49.132C158.518 49.132 156.373 46.5308 156.373 41.1868C156.377 35.9075 158.425 33.0959 163.148 33.0959ZM169.519 27.3999C169.519 26.7769 169.97 26.4613 171.046 26.4492H171.85C172.969 26.4492 173.434 26.7647 173.434 27.3999V39.2126L173.527 39.249L176.727 33.8362C177.031 33.3588 177.538 33.2779 178.282 33.2739H179.304C180.298 33.2739 180.795 33.4478 180.795 33.731C180.795 33.8645 180.713 34.0587 180.574 34.2852L176.88 40.2361L181.167 47.9346L181.274 48.1692C181.342 48.323 181.385 48.4443 181.385 48.5657C181.385 48.8489 180.92 49.0228 179.894 49.0228H178.657C177.942 49.0107 177.427 48.8934 177.192 48.4605L173.527 41.6035L173.434 41.6399V48.0721C173.434 48.7032 172.969 49.0228 171.85 49.0228H171.103C169.984 49.0228 169.519 48.7073 169.519 48.0721V27.3999Z" fill="#88CE02"/>
<path d="M13.9133 40.8672C12.3295 41.7127 8.13576 45.5073 7.32776 46.632C6.48758 47.7566 6.24089 46.0009 7.10967 43.08C7.79254 40.7256 9.53367 37.5256 12.4546 34.7828C14.1636 33.201 17.9247 30.9154 20.2236 29.5804C20.6884 29.2972 26.7162 26.4168 32.0933 24.9766C32.5581 24.835 31.5356 25.8545 31.3783 26.4168C30.5703 29.0868 14.446 40.5516 14.446 40.5516L13.9133 40.8672ZM36.6267 73.1054C36.9056 75.0027 36.6589 75.1443 34.9177 75.3911C33.1766 75.6379 31.9038 74.8975 31.439 74.408C30.9743 73.9145 30.8813 72.8263 31.3461 71.8432C31.625 71.2121 31.9038 70.9977 32.0611 70.225C32.2149 69.4888 32.34 69.3108 32.4651 69.0316C32.5903 68.7849 32.6189 68.5381 32.651 66.8147C32.6832 65.0914 32.651 61.859 32.8048 60.4876C32.9585 59.0798 38.3356 61.1187 38.3356 61.1187C38.3356 61.1187 37.0629 64.703 36.7197 65.5849C36.3764 66.4628 36.4086 68.1497 36.4086 68.5017C36.4086 68.8536 36.2835 69.5575 36.1905 69.5899C36.0976 69.6263 36.5016 70.5406 36.3156 71.0665C36.1941 71.556 36.5981 72.8222 36.6267 73.1054ZM38.6789 19.3494C38.493 18.0144 38.6789 15.3768 38.9291 14.956C39.705 13.7586 43.8057 13.621 44.6781 15.0248C45.0499 15.6559 45.0213 17.1325 44.957 18.0832C44.8962 19.0339 44.6781 21.0728 44.6459 21.7403C44.6137 22.2338 40.109 23.0065 39.1151 21.6715C38.8326 21.3195 38.6789 19.3494 38.6789 19.3494ZM47.8136 69.6951C49.7084 71.2405 51.1707 71.5236 52.1324 72.086C53.0942 72.6483 52.8475 73.7365 51.2315 74.0561C49.9265 74.3393 47.8743 73.7729 46.5086 73.7729C45.1429 73.7729 42.0968 73.9469 41.2888 73.3158C40.3556 72.5795 40.7596 71.2081 40.7596 71.2081C41.0099 70.4354 41.6284 68.712 41.4425 67.3042C41.2566 65.8964 41.0063 65.1237 40.5416 63.8251C40.0768 62.5225 39.7336 59.3266 40.1697 59.1486C40.6059 58.9746 40.4808 59.1486 41.0385 59.2902C41.5963 59.4318 42.2183 59.6421 43.4303 59.6421C44.6423 59.6421 45.9795 59.4318 46.4443 59.3266C46.909 59.2214 47.2844 59.1162 47.1271 60.2045C46.9734 61.2927 46.505 63.3316 46.4764 64.9174C46.4443 66.4992 46.4443 68.3277 46.5372 68.6433C46.6337 68.9548 47.3166 69.3067 47.8136 69.6951Z" fill="black"/>
<path d="M41.1637 22.8637C37.7458 26.2052 31.1281 27.1195 21.3105 31.4077C18.7935 32.4959 12.0829 35.7687 10.4669 39.179C15.9048 35.6271 17.9248 40.514 18.3574 45.5425C18.7614 50.2555 20.8421 52.7151 26.1871 52.5735C31.6858 52.4319 33.3661 56.0526 34.8856 60.3084C37.8387 44.0295 42.5616 40.866 45.6041 38.0908C52.0717 32.148 44.1168 21.6703 41.1637 22.8637Z" fill="#88CE02"/>
<path d="M41.1637 22.8637C32.9621 26.1001 24.85 26.9051 15.3113 33.5518C13.0446 35.1336 8.25735 38.7178 7.32422 45.5749C10.8029 41.2139 18.8507 35.7323 28.7005 32.2491C33.6736 30.4894 37.306 29.3324 41.7178 27.3987C41.414 25.1494 41.414 24.2715 41.1637 22.8637Z" fill="#88CE02"/>
<path d="M51.6355 42.1306C51.6355 42.1306 51.0456 44.4163 49.8658 45.1525C49.8658 45.1525 48.997 45.5045 47.2559 44.4163C46.7589 44.1007 46.3871 43.0084 46.4157 42.6565C46.4479 41.811 46.9126 41.4267 46.9126 41.4267C46.9126 41.4267 47.4096 40.476 47.9995 40.5124C48.5894 40.5488 49.5833 40.654 49.8944 40.3384C50.1732 39.9865 51.6963 40.9695 51.6355 42.1306ZM38.9578 20.0181C38.9578 20.0181 38.8326 21.8103 38.6145 22.9349C38.5824 23.1453 37.6528 23.2504 36.9664 23.566C38.2713 27.7854 46.1332 27.749 47.1593 25.6737C46.6624 25.2853 45.6685 24.6906 45.2037 24.4803C44.7389 24.2699 44.7675 24.3063 44.7389 23.3192C44.7067 22.3362 44.6459 20.5076 44.5852 20.0141C44.5208 19.5246 39.705 19.5246 38.9578 20.0181Z" fill="black"/>
<path d="M39.2688 20.0181C39.2688 20.0181 39.2688 21.0376 39.1759 22.0206C39.1437 22.4778 39.1151 22.7569 39.0507 23.1089C39.0186 23.3192 40.1054 24.1647 40.4165 26.0256C41.9074 29.7879 45.3574 27.9229 46.7875 26.1308C46.2906 25.7424 45.4826 25.2165 44.5494 24.7958C44.0847 24.5854 44.2992 24.1283 44.2706 23.1453C44.2384 22.1622 44.1168 20.718 44.0525 20.1921C43.9917 19.6662 40.0161 19.5246 39.2688 20.0181Z" fill="#EFEFEF"/>
<path d="M38.9578 20.0181C38.9578 20.0181 38.9256 20.6492 38.8326 21.3895C39.2366 21.8467 39.7658 22.4778 40.1698 22.8661C40.4486 23.1493 41.1315 23.1129 41.7536 23.1129C42.3113 23.1129 42.8083 23.1817 43.0264 23.0441C43.5233 22.7609 44.2384 22.0611 44.6424 21.5311C44.6102 20.9 44.5816 20.3013 44.5494 20.0181C44.5208 19.5246 39.705 19.5246 38.9578 20.0181Z" fill="black"/>
<path d="M41.7857 22.6881C41.4139 22.6881 40.9777 22.6517 40.6345 22.5829C40.4808 22.5465 40.3235 22.4414 40.1983 22.3726C39.9802 22.1986 39.7622 21.9842 39.5155 21.7739C39.0185 21.3531 38.9863 21.1064 38.9863 21.0012C39.2044 18.7843 38.9256 16.9234 38.9256 16.9234C38.9256 16.9234 38.7075 15.9727 39.8873 15.7259C41.0671 15.4791 41.7822 15.4427 41.7822 15.4427C41.7822 15.4427 42.5294 15.4427 43.677 15.7259C44.8568 15.9727 44.6388 16.9234 44.6388 16.9234C44.6388 16.9234 44.3599 18.7883 44.578 21.0012C44.578 21.1064 44.5458 21.3531 44.0488 21.7739C43.6127 22.1258 43.273 22.5101 42.9298 22.5829C42.5937 22.6558 42.1576 22.6881 41.7857 22.6881Z" fill="black"/>
<path d="M41.7858 14.5325C39.7336 14.5325 39.3296 15.1636 38.7397 15.8675C38.6146 16.0414 38.7075 17.0973 38.9256 19.3466H39.2045C39.2045 19.3466 39.0185 18.7155 39.0507 17.9752C39.0829 17.2389 39.2045 17.2713 39.1115 17.0973C38.9864 16.8869 38.7397 16.535 39.2974 16.183C39.8552 15.8311 40.7275 16.4662 41.7822 16.4986C42.8369 16.4622 43.7378 15.8311 44.2992 16.183C44.8569 16.535 44.6102 16.8869 44.4851 17.0973C44.3599 17.3077 44.5172 17.2389 44.5458 17.9752C44.578 18.7114 44.3921 19.3466 44.3921 19.3466H44.671C44.8569 17.0973 44.982 16.1102 44.8891 15.9363C44.3635 15.1636 43.8344 14.5689 41.7858 14.5325ZM51.6355 42.2358C51.6355 42.2358 51.0456 44.3799 49.8944 45.1202C49.6441 44.9786 49.6763 44.7682 49.4582 44.4527C49.3974 44.3475 49.1793 44.2787 49.0864 44.1695C48.9934 44.0643 49.0256 43.8863 48.8683 43.7488C48.7432 43.6072 48.6502 43.7124 48.5251 43.6072C48.3999 43.4656 48.3713 43.2916 48.2748 43.1864C48.214 43.1177 47.9638 43.0813 47.903 43.0125C47.7492 42.8385 46.3799 42.5189 46.4443 42.167C46.5694 41.6411 46.8161 41.2527 46.8161 41.2527C46.8161 41.2527 47.406 40.2697 47.9959 40.302C48.5858 40.3384 49.1472 40.476 49.4546 40.1604C49.8014 39.8125 51.7285 41.1111 51.6355 42.2358Z" fill="black"/>
<path d="M47.5955 26.6972C47.5955 26.6972 49.5511 26.1713 50.8883 27.6114C52.2254 29.088 52.1324 30.9166 51.7284 32.0412C52.0717 32.4983 52.6902 33.7646 52.2254 35.2776C54.2776 37.2477 53.3766 40.2697 51.5425 42.2722C51.5425 42.2722 51.1063 40.4436 49.3688 40.3384C49.4296 39.6345 47.7528 39.0722 48.5286 37.2437C47.3488 36.9281 47.3774 36.0138 47.1915 34.8892C47.0377 33.7646 47.5955 26.6972 47.5955 26.6972Z" fill="black"/>
<path d="M46.8804 27.6802C46.8804 27.6802 49.1471 26.3776 50.4843 27.8542C51.8214 29.3308 51.446 30.9489 51.042 32.0736C51.3852 32.5307 52.1932 33.8333 51.6927 35.3787C51.5997 35.7307 50.9169 35.7307 50.4199 36.6449C51.6641 35.8358 52.4399 36.0462 52.7188 37.0657C53.1549 38.6474 52.1896 40.5447 51.353 41.6006C51.353 41.5642 51.3209 41.5318 51.3209 41.4954C51.1957 42.0213 51.042 43.0408 50.1089 44.1654C49.6441 44.7278 49.2687 44.659 48.7431 44.5174C48.121 44.3434 47.9029 44.0238 47.0342 43.4979C46.5372 43.1824 46.8161 42.794 46.8161 42.4785C46.8161 42.4097 46.8769 42.3045 46.9698 42.1629C47.0306 41.989 47.2201 41.7058 47.499 41.3903C47.499 41.3903 47.9029 40.7592 48.4929 40.7915C49.0828 40.8279 49.7049 40.6863 49.8586 40.5083C49.8586 39.2785 48.6144 39.2421 49.0506 37.1344C49.0828 37.0293 49.2365 36.8513 49.7335 36.7825C48.9862 36.6085 48.6466 36.5721 48.1175 36.0098C47.7456 35.6214 47.4668 35.1319 47.3702 34.4968C47.1915 33.4126 46.8804 27.6802 46.8804 27.6802Z" fill="#EFEFEF"/>
<path d="M40.3235 25.4673C40.1376 25.1842 39.1723 23.7804 37.3418 23.2181C36.8126 23.0441 36.473 23.5336 35.9439 23.8856C35.7901 23.7804 35.1037 23.4284 34.7319 23.6752C34.36 23.922 34.1098 24.1688 33.7379 24.3427C33.552 24.2375 33.0551 24.2375 32.6511 24.4115C32.2471 24.5531 31.625 24.8686 31.0351 25.7829C30.6633 27.2959 37.6206 26.1713 37.6206 26.1713L40.3235 25.4673Z" fill="black"/>
<path d="M40.3878 25.4673C39.3939 25.079 39.5476 23.7804 37.3417 23.57C36.9055 23.5336 36.6267 23.922 36.3156 24.1688C36.4694 24.3427 36.6267 24.6259 36.7196 24.905C36.4408 24.5531 35.9438 24.0959 35.4469 23.9908C34.9821 23.8856 34.671 24.2739 34.1741 24.5531C34.267 24.6583 34.36 24.8363 34.4851 25.0466C34.0489 24.7311 33.7379 24.6259 33.148 24.8727C32.744 25.0143 31.9682 25.3986 31.3783 26.3493C31.0064 27.8623 37.6563 26.1753 37.6563 26.1753L40.3878 25.4673Z" fill="#88CE02"/>
<path d="M46.2298 26.0297C46.2298 26.0297 46.2298 25.6413 46.1976 25.2934C46.1976 25.2246 45.9473 25.0466 45.9473 24.9778L45.8865 24.9091C45.8865 24.9091 46.3835 24.5935 46.7553 24.7675C47.1593 24.9091 47.3774 25.5038 47.3774 25.5038C48.0925 25.2206 48.1532 25.5402 48.4964 25.9609C49.2437 25.7869 49.3366 26.1025 49.8014 26.8752C49.8014 26.8752 49.2437 26.77 48.1532 26.9803C47.0985 27.1543 46.2298 25.9933 46.2298 26.0297Z" fill="black"/>
<path d="M46.1046 25.8517C46.1046 25.8517 46.2905 25.6777 46.2298 25.6413C46.573 25.4309 47.0378 25.1842 47.2558 25.8517C47.9709 25.5685 48.0638 25.9568 48.4071 26.3776C49.2758 25.9204 49.3402 26.4828 49.401 26.7295C49.1221 26.7295 48.7181 26.7659 48.1568 26.8347C47.0985 27.0127 46.0724 25.8193 46.1046 25.8517Z" fill="#88CE02"/>
<path d="M35.5399 24.9738C35.5399 24.9738 37.3096 25.6777 38.8041 25.5725C40.2949 25.4309 42.8441 25.2893 44.2098 26.2036C44.2098 26.2036 45.6077 25.6413 46.9127 26.0297C48.2176 26.418 50.6094 28.9464 49.8944 31.6205C49.8336 31.7944 49.4296 32.0776 48.9613 32.2516C48.9613 32.2516 49.2115 33.445 48.7753 34.4321C48.3392 35.3828 47.3774 37.2113 47.3453 39.7397C47.3131 40.1604 47.2523 41.0423 47.1915 41.4631C44.7675 41.3579 41.0386 40.3384 37.374 40.4072C37.4061 39.9501 37.4347 39.6709 37.4669 39.2138H37.5599C37.374 38.0528 37.3096 37.454 37.1237 36.5762C35.9439 35.7307 34.6997 34.7476 33.645 32.8827C32.6189 31.0218 35.5399 24.9738 35.5399 24.9738ZM47.5347 43.9591C47.5347 43.9591 49.4618 51.7628 47.1915 55.0356C47.1915 55.0356 47.5347 56.5486 46.7553 58.1627C46.6302 58.8666 46.4765 59.4977 46.3835 60.2016C45.9795 63.1184 45.2967 64.3482 45.1107 69.0248L43.2481 68.9883C43.2481 68.9883 43.03 65.6144 42.3793 63.8183C42.0075 62.7988 40.5452 61.4274 40.6095 60.056C40.6703 59.0001 40.8598 58.1223 42.4436 56.7144C42.5688 54.6755 40.7669 52.7418 41.0457 45.1485L47.5347 43.9591Z" fill="black"/>
<path d="M46.9734 43.6436C47.4704 47.2278 48.6216 52.5395 46.5372 55.1407C46.6302 55.6343 46.691 56.3382 46.5694 57.1433C46.5086 57.564 46.3835 58.0211 46.2262 58.5147C45.9151 59.3602 45.79 60.59 45.6971 61.3263C45.2931 64.243 45.2931 64.3846 45.1071 69.0612L43.2444 69.0248C43.2444 69.0248 43.0264 65.6508 42.3757 63.8587C42.0039 62.8393 41.2245 61.9614 41.1637 60.59C41.1029 59.5341 41.7536 57.4264 43.3088 57.4952C43.2159 53.2394 41.4747 54.0849 41.0099 45.2253L46.9734 43.6436ZM35.5398 24.9738C35.5398 24.9738 36.2227 25.2206 36.9699 25.2893C37.7172 25.3581 38.5252 25.2893 39.2366 25.2529C40.7275 25.1113 42.8404 24.9374 44.2384 25.8517C44.2384 25.8517 45.0142 25.5685 45.8544 25.6413C46.2262 25.6777 46.6016 26.0297 47.0342 26.1672C48.3999 26.5556 49.7049 29.1204 49.115 31.4425C49.0542 31.6164 48.618 31.4425 48.1211 31.6164C48.214 32.11 48.2748 33.2346 47.7778 34.428C47.2487 35.6255 46.5658 37.1708 46.691 40.124C43.4268 39.9501 41.9681 39.7033 38.7361 39.5253C38.4572 38.2227 38.2713 36.9241 38.2391 36.2566C38.6753 36.0098 38.922 35.7994 39.2652 35.3787C38.3321 35.5527 37.9603 35.4839 37.4025 35.1319C36.8448 34.78 35.8473 33.6553 35.3504 32.9191C35.2896 32.8503 34.9464 34.0073 34.1705 34.0437C33.8917 33.5866 35.0715 32.2839 34.8534 31.7944C34.0812 30.0023 35.5398 24.9738 35.5398 24.9738Z" fill="#EFEFEF"/>
<path d="M47.2237 40.7228C47.2237 40.7228 47.2844 41.989 47.2844 42.3045C47.2844 42.6565 47.5347 43.7123 47.5633 44.2018C47.2201 44.8693 45.7292 46.3823 43.0264 46.9447C40.3557 47.5758 36.8126 42.8304 36.8126 42.8304C36.9056 42.3733 37.2166 41.0383 37.4347 40.3344C37.4669 40.2656 37.5277 40.0876 37.5277 40.0188C37.8101 39.5658 47.2237 40.7228 47.2237 40.7228Z" fill="black"/>
<path d="M46.5408 40.832C46.5408 41.7099 46.666 42.345 46.7589 42.9073C46.9126 43.9268 47.1629 44.5943 47.1629 45.2618C47.1629 47.3007 44.8033 46.9487 42.8119 47.0215C40.1412 47.6526 37.8709 42.9073 37.8709 42.9073C38.0568 42.0982 38.182 41.1839 38.4608 40.4113C38.493 39.9905 38.5538 39.4606 38.586 39.2178C42.3757 39.2178 45.05 39.4646 46.6016 39.6386C46.6624 40.0229 46.6016 40.6904 46.5408 40.832Z" fill="#EFEFEF"/>
<path d="M43.5555 45.3669C43.5555 45.3669 41.9073 41.2203 36.9699 42.4502C35.7901 46.2124 34.2063 50.537 35.2288 55.2136C34.2027 56.7953 33.0229 57.6732 33.0229 60.594C33.0229 63.5108 33.148 64.0043 33.148 64.0043L36.784 64.2147C36.784 64.2147 37.9638 62.4913 38.4322 60.6304C38.5573 60.1045 38.6825 59.1538 38.5859 58.0656C38.7111 57.8553 39.2366 57.3617 39.301 56.4151C39.301 56.4151 41.0707 55.3592 42.0968 52.7944C43.0585 50.4642 42.8118 48.4577 43.5555 45.3669Z" fill="black"/>
<path d="M43.5555 45.3669C43.4626 44.9786 42.2184 41.1839 37.6206 42.3086C34.9178 50.4642 35.9117 53.8422 36.3157 55.3188C34.4816 57.9564 33.645 58.5187 34.0168 63.8628H36.4408C37.5599 61.8603 37.8066 61.1199 37.8709 58.4823C37.8709 58.3771 37.5277 58.6927 37.281 59.0446C37.4669 57.9564 37.996 57.742 38.4 57.0745C38.586 56.7913 38.7433 56.3706 38.7433 55.8083C40.917 54.1577 41.725 52.0824 42.1934 49.9383C42.5616 48.4577 42.9978 46.0344 43.5555 45.3669Z" fill="#EFEFEF"/>
<path d="M35.883 39.7074C35.883 39.7074 36.7232 39.7438 37.4669 40.0229C38.1819 40.3061 38.1819 40.48 38.4608 40.832C38.7396 41.1839 39.4225 41.7098 39.3009 42.2398C39.2402 42.523 39.0829 42.5918 38.8648 42.8385C38.7718 42.9437 38.0889 43.7892 37.9316 43.8944C37.8387 43.9632 37.7135 44.0684 37.6206 44.1412C37.5276 44.2099 37.2488 44.4244 37.1558 44.4931C36.8448 44.6671 36.6267 44.7763 36.287 44.7399C36.287 44.7399 35.5112 44.7035 35.0143 44.1088C35.0143 44.1088 34.9535 43.8256 35.075 43.6881C35.075 43.6881 34.4208 43.057 34.2349 42.6322C34.0489 42.2115 34.0489 41.6128 34.1741 41.2972C34.2349 40.9695 35.4469 40.0917 35.883 39.7074ZM36.6589 73.9117L36.5659 74.7895C36.5659 74.7895 36.287 75.1779 34.2063 75.1415C32.0933 75.1051 31.5356 74.3688 31.3461 73.9804L31.2209 73.0662C31.2209 73.0662 31.6249 72.3987 31.7179 72.3987C32.4008 72.4675 34.7318 73.5233 36.3478 73.8065C36.5051 73.8065 36.5337 73.8793 36.6589 73.9117ZM41.1636 72.1195C41.1636 72.5079 41.1315 72.5079 41.1315 72.8922C41.5033 73.2078 42.4364 73.3858 44.2061 73.3493C46.7839 73.2806 49.1793 74.2272 52.0967 73.6649L52.1288 73.0338L51.85 72.9974L41.5033 72.0467L41.1636 72.1195Z" fill="black"/>
<path d="M43.4339 73.3494H44.2098C45.8865 73.2806 47.4739 73.7013 49.1829 73.8065C50.0838 73.7701 51.2029 73.5233 51.1099 72.787L42.2863 71.9415C41.7536 72.6131 42.1576 73.1754 43.4339 73.3494ZM33.3017 58.5511C33.5806 58.7614 35.4755 60.0277 38.5537 59.8537C38.493 60.5212 38.5216 61.8239 37.1558 64.1095C36.473 65.2342 35.8831 67.2043 35.7579 69.7004C35.7901 70.2627 36.069 70.7562 35.6971 71.4925C35.8223 71.9496 36.3192 72.8639 36.5659 73.4262C36.8162 73.9885 36.9377 74.6237 35.2931 74.656C33.6164 74.6924 30.9135 74.4821 31.2853 73.0055C31.4712 72.2328 32.0004 71.4237 32.0611 71.1082C32.1219 70.7926 32.1219 69.8419 32.6511 69.2109C33.1158 67.4511 32.9621 65.7641 32.8691 64.1824C32.7118 62.5237 32.6832 59.8861 33.3017 58.5511ZM36.1941 29.8971C38.4 26.5556 36.5373 23.8856 32.9943 24.6947C31.5642 25.0102 30.1341 26.1349 30.0411 28.1738C29.5764 28.2425 28.5181 28.3154 27.989 30.4959C27.585 32.1828 27.3669 32.4984 26.6518 33.3439C26.1871 33.9426 26.684 35.1724 27.0237 36.0503C28.1749 39.0722 31.7144 39.3554 34.1062 41.6411C34.9142 41.3943 35.7543 40.3749 36.001 39.7074C33.981 37.0009 34.4172 35.9451 33.6092 34.5373C34.4851 34.1853 36.473 32.8139 36.1941 29.8971Z" fill="black"/>
<path d="M35.7579 29.6868C35.883 29.4764 36.1011 29.0193 36.1941 28.8413C36.2263 28.8048 36.5659 29.4723 36.5981 29.44C37.4383 27.8946 37.6528 25.6413 36.691 25.4309C36.473 25.3945 36.069 25.2893 35.7293 25.1478C35.1072 24.901 34.5495 24.901 33.5556 25.1113C32.1898 25.3945 30.8205 26.5192 30.8205 28.1333C30.8205 28.2385 31.7823 28.554 32.0647 29.8567C31.5999 29.1163 30.7919 28.3113 29.8266 29.0112C28.8005 29.7474 29.3297 31.4384 27.9639 33.1942C27.4992 33.7929 27.5599 34.4968 28.0569 35.9006C28.8649 38.1175 32.6868 39.3109 34.7676 41.4186C35.2645 41.1718 35.6078 40.6095 35.8544 40.1888C34.4565 38.5382 33.8952 36.9888 33.4948 35.8642C32.9978 34.5615 32.4365 33.8253 31.3497 32.8422C31.9074 33.089 32.3436 33.3358 32.5938 33.5461C32.8727 33.7565 33.2767 33.7929 33.6521 33.6513C34.9821 33.1294 35.6971 31.0218 35.7579 29.6868Z" fill="#EFEFEF"/>
<path d="M49.2723 30.2491C49.1793 31.5841 48.3105 30.9166 47.8422 30.6698C46.9091 30.2127 45.9795 29.8971 44.8891 29.8971C43.7986 29.8971 42.4043 30.0023 41.1923 30.3543C39.5155 30.8802 39.0185 30.8478 38.2713 30.423C37.5241 29.9659 36.2191 28.8413 36.2191 28.8413C36.2191 28.8413 36.187 29.1932 36.498 29.6504C36.902 30.2127 37.803 30.9166 39.015 31.3737C39.6049 31.5841 40.0732 31.4425 40.5988 31.3049C43.3624 30.5323 46.2834 30.3907 48.7396 32.0776C48.8647 32.1464 49.2973 31.936 49.4868 31.6205C49.7406 31.1634 49.2723 30.2491 49.2723 30.2491Z" fill="black"/>
<path d="M35.1359 43.6436C35.3861 43.8175 35.6936 43.9268 36.0368 44.2423C36.0368 44.2423 35.758 44.2423 35.6328 44.1007C35.4791 43.9955 35.168 43.68 35.1359 43.6436Z" fill="#001423"/>
<path d="M44.1168 15.7623C44.0239 15.4468 43.341 14.8844 41.7572 14.8844C40.0482 14.8844 39.5513 15.4832 39.5191 15.7987C39.5191 15.9039 39.394 17.0285 39.3654 17.4857C39.3654 17.4857 39.3654 18.048 39.3975 18.8935C39.4297 19.4558 39.5513 19.7714 39.6156 20.5117C39.6764 21.2844 39.8659 21.7779 40.2055 22.409C40.3593 22.5142 40.4844 22.6194 40.6417 22.6558C41.2638 22.7974 42.3507 22.8297 42.9406 22.6558C43.2838 22.5506 43.7164 21.8831 43.8094 21.2844C43.9345 20.5481 44.0596 20.0181 44.0882 19.561C44.149 19.1039 44.1812 18.0844 44.2134 17.8012C44.3027 17.0285 44.1454 15.8351 44.1168 15.7623Z" fill="#EFEFEF"/>
<path d="M40.8526 59.2186C40.8526 59.2186 42.5008 60.0277 46.5694 59.3238C46.5694 59.3238 45.4182 65.8612 45.9473 69.134C45.9473 69.134 46.4764 69.9795 50.3913 71.5936C50.3913 71.5936 52.1324 72.0872 52.0681 73.0702C52.0681 73.0702 52.1289 73.2806 50.0159 73.2118C47.9029 73.143 45.9151 72.7182 44.5172 72.7182C43.1193 72.7182 41.6284 72.787 41.3782 72.3299C41.0993 71.9092 41.4389 70.8169 41.8429 70.1858C42.2791 69.5183 42.154 69.0248 42.1218 67.8313C42.0324 64.7042 39.9195 61.4678 40.8526 59.2186Z" fill="black"/>
<path d="M40.513 59.8173C40.2949 60.1693 40.5451 61.5043 40.8562 62.8069C41.1672 64.1095 41.8501 64.8822 42.0074 67.0263C42.1611 69.134 42.1933 69.4172 41.6642 70.647C41.1351 71.8768 40.9813 73.0014 42.8154 73.0378C44.6495 73.0743 45.6434 73.0014 47.5061 73.321C49.3688 73.6366 50.0231 73.7418 51.0491 73.5678C52.0752 73.3938 52.2933 73.0055 51.8571 72.6535C51.421 72.3016 49.6191 71.9173 48.8432 71.2133C48.096 70.5823 45.9831 69.5264 45.9545 69.2432C45.8615 68.2925 45.8293 64.8498 45.9866 63.7252C46.1404 62.6006 46.3584 60.9824 46.4228 60.5617C46.4836 60.1409 46.7946 59.7162 46.2691 59.8578C45.7399 59.9993 43.7521 60.3149 42.2612 60.2097C40.7597 60.0964 40.6059 59.7081 40.513 59.8173Z" fill="#88CE02"/>
<path opacity="0.3" d="M41.5677 70.6793C42.0968 70.9625 42.8726 71.1729 43.4625 71.1729C43.4625 71.1729 43.2445 72.3339 43.5877 73.0378C43.9309 73.7417 41.1029 73.321 41.1029 73.321L40.9778 70.825L41.5677 70.6793ZM49.8014 73.7013C50.2984 73.5273 50.6416 72.8922 50.2376 72.2935C49.8014 71.6947 49.4296 71.5896 49.9873 71.5572C50.5451 71.5208 52.5972 72.9286 52.5972 72.9286L51.539 74.0168L49.8014 73.7013ZM40.42 61.1847C41.1351 61.4678 42.2219 61.5366 43.1551 61.5002C44.0882 61.4638 45.4861 61.3262 46.3871 60.9743C47.288 60.6223 46.9162 61.3627 46.9162 61.3627L46.4193 61.8886C46.4193 61.8886 45.2394 62.4145 43.3124 62.3821C41.0457 62.3457 40.3593 62.0666 40.3593 62.0666L40.42 61.1847ZM40.4808 62.9444C41.1959 63.2276 42.2827 63.2964 43.2159 63.26C44.149 63.2236 45.3896 63.2236 46.2905 62.8392C46.6624 62.6977 46.4443 63.2964 46.4443 63.2964L46.2905 63.6119C46.2905 63.6119 45.0785 64.1055 43.1837 64.0691C40.917 64.0327 40.513 63.8223 40.513 63.8223L40.4808 62.9444Z" fill="black"/>
<path d="M38.4286 38.2995C38.4286 38.5463 40.8526 39.9177 42.1897 40.1968C43.5269 40.48 46.3227 40.1968 46.7589 40.0917L46.6981 40.5852C46.6981 40.5852 43.3731 41.1475 40.8276 40.3748C38.2784 39.6022 38.5609 39.4242 38.5609 39.4242L38.4286 38.2995Z" fill="black"/>
<path d="M33.2399 68.2897C33.6117 68.5001 34.9489 68.8884 35.8176 68.6781C35.9428 68.6416 35.8176 66.2508 36.1609 65.1626C36.6578 63.6496 37.4658 62.4197 37.8376 59.7497C36.5327 59.6081 35.0418 59.2238 34.266 58.9406C33.2721 62.3833 33.6153 65.3365 33.2399 68.2897ZM35.3243 70.5026C35.5424 70.5713 35.6961 70.8545 35.7604 70.6765C35.8856 70.361 35.5423 69.7622 35.5102 69.3415V69.3051C35.2313 69.0219 33.3364 68.9896 33.458 69.1311C33.2399 69.5883 32.9003 69.5195 32.7751 70.4338C32.7143 70.8909 33.2113 70.5026 33.6761 70.4702C32.8359 71.1013 31.8742 71.9104 31.7204 72.6143C31.5345 73.5973 31.8456 73.8805 32.7787 74.4064C33.5867 74.6168 34.5484 74.6532 35.2957 74.6168C36.1358 74.4428 36.2896 73.9857 36.0429 73.3506C35.6639 72.4039 35.4172 71.1701 35.3243 70.5026Z" fill="#EFEFEF"/>
<path d="M35.665 24.8322C36.691 25.4997 38.1211 25.3258 38.6467 25.2894C38.7718 25.2894 40.0124 25.0426 40.0768 25.079C40.2019 25.1154 40.2019 25.2206 40.2019 25.2206C40.2019 25.2206 39.7371 25.5038 38.6789 25.5725C37.685 25.6413 36.5051 25.5725 35.8509 25.2206C35.075 24.8322 35.665 24.8322 35.665 24.8322ZM46.2297 25.4997C46.4157 25.6413 47.6277 26.1672 48.1568 26.8024C48.6216 27.3647 48.3749 27.3283 48.2819 27.1907C48.1568 27.0168 47.1951 26.2764 46.8232 26.1025C46.4514 25.9285 45.983 25.6089 45.983 25.5402C45.983 25.4714 46.2297 25.4997 46.2297 25.4997Z" fill="black"/>
<path d="M35.5076 40.0917C36.4086 40.0229 37.3417 40.2656 37.9316 40.9695C38.2427 41.3215 38.7396 41.7058 38.6789 42.0578C38.6789 42.1629 38.4929 42.4461 38.3356 42.6565C38.2427 42.7981 37.9638 43.1136 37.8709 43.2188C37.7457 43.324 37.3131 43.7124 37.2202 43.7811C37.1272 43.8499 37.0021 44.0279 36.9091 44.0643C36.5981 44.2383 36.2584 44.1007 35.9474 43.9227C35.6363 43.7488 36.0082 43.7124 35.6685 43.4292C34.8283 42.7617 34.3636 42.3045 34.7068 41.0019C34.7318 40.7592 35.075 40.48 35.5076 40.0917Z" fill="#EFEFEF"/>
<path opacity="0.4" d="M27.585 32.04C24.7892 33.3062 17.6745 37.3153 15.6545 38.5451C17.3313 39.7385 18.1107 42.6229 18.3573 45.5397L18.4503 46.3488C18.4825 46.5955 18.5111 46.7695 18.5433 46.8747C18.5433 46.9111 18.5433 46.9799 18.5754 47.0163C20.4095 41.3567 26.9629 35.3775 27.2132 34.9204C27.3383 34.71 27.0594 33.7957 27.492 32.9179C28.0533 31.7932 29.1402 31.3037 27.585 32.04ZM34.2349 58.5863C35.665 55.3499 35.6936 52.2592 35.665 48.6385C35.665 47.1255 36.6267 44.9814 36.1298 45.5801C34.2671 47.9346 29.5728 52.3644 26.1871 52.6111C30.9421 52.4331 32.8048 55.1395 34.2349 58.5863Z" fill="black"/>
<path d="M12.9194 41.5347C14.6892 40.0945 23.856 34.5725 26.0619 33.7998C28.2679 32.9907 27.585 32.04 27.585 32.04C27.585 32.04 18.6362 36.401 13.2913 40.1633" fill="black"/>
<path opacity="0.4" d="M39.0185 31.3725C38.3035 31.057 37.7457 32.0036 37.9317 32.9179C38.1176 33.8321 39.7943 34.8516 39.7014 38.1931C39.6406 40.936 39.1115 42.0606 39.1115 42.0606L37.9317 40.3736C37.9317 40.3736 37.7457 36.575 37.3417 36.0126C36.9377 35.4503 35.665 34.4309 35.168 33.905C34.6711 33.379 35.7257 32.6751 35.665 31.6881C35.6042 30.7374 36.1941 28.84 36.1941 28.84L39.0185 31.3725ZM43.3374 46.3488C43.2766 48.9864 43.8022 52.8862 44.0203 54.7512C44.2383 56.6161 44.5172 56.7537 44.0203 57.5992C43.5233 58.4083 42.869 59.7433 42.869 59.7433L40.7239 59.5329C40.7239 59.5329 42.4329 57.0733 42.5258 56.6161C42.6188 56.159 41.657 52.6799 41.657 52.6799L43.3374 46.3488ZM39.208 21.7403C39.6442 22.8285 40.1697 23.322 41.0099 23.6376C41.5069 23.848 43.4661 24.1311 44.2419 23.1441C44.5851 22.6869 44.3671 21.4571 44.3671 21.4571L42.5973 23.0753L40.2055 22.5817L39.9266 21.7726L39.208 21.7403Z" fill="black"/>
<path d="M39.3939 24.1635C40.2019 24.7622 42.2219 25.3245 42.7797 25.4297C43.3374 25.5713 44.2384 24.7622 44.6745 24.5519C45.1393 24.3051 45.9473 24.1635 46.8805 25.1142C46.9734 25.2194 46.6624 25.6765 46.6624 25.6765C46.6302 25.6401 46.4443 25.6401 46.1976 25.5025C45.9473 25.361 45.7328 25.2558 45.3574 25.2922C43.8022 25.5025 43.5555 26.1013 42.1898 25.7493C40.824 25.3974 40.4808 25.1182 39.1437 25.187" fill="#88CE02"/>
<path d="M39.3939 24.1635C40.2019 24.7622 42.2219 25.3245 42.7797 25.4297C43.3374 25.5713 44.2384 24.7622 44.6745 24.5519C45.1393 24.3051 45.9473 24.1635 46.8805 25.1142C46.9734 25.2194 46.6624 25.6765 46.6624 25.6765C46.6302 25.6401 46.4443 25.6401 46.1976 25.5025C45.9473 25.361 45.7328 25.2558 45.3574 25.2922C43.8022 25.5025 43.5555 26.1013 42.1898 25.7493C40.824 25.3974 40.4808 25.1182 39.1437 25.187" stroke="black" stroke-width="1.586" stroke-linejoin="round"/>
<path d="M39.1115 24.2727C40.1376 24.7663 42.1254 25.2922 42.6831 25.4338C43.2408 25.5754 44.1418 24.9402 44.578 24.6247C45.3538 24.0624 46.3477 24.5195 46.8161 25.1182C47.1271 25.5066 47.2522 25.7493 47.2522 25.8545C47.2522 25.9961 46.8804 25.8545 46.8804 25.8545C46.6623 25.7493 46.4156 25.7129 46.2297 25.5713C45.9795 25.4297 45.7328 25.2194 45.361 25.2558C43.8057 25.4661 43.4983 26.0649 42.1611 25.7129C40.824 25.361 40.4843 25.0454 39.0543 25.1506" fill="#88CE02"/>
<path d="M34.2956 57.1097C34.2349 57.0409 34.3564 56.9681 34.2956 56.9681C33.8916 56.9681 33.3339 56.6161 33.0229 56.1226C31.6857 53.9421 29.7301 52.5019 26.187 52.6071C20.8743 52.7487 18.7613 50.285 18.3573 45.5761C18.1392 43.0113 17.5171 40.5152 16.2444 39.1074L15.4971 39.6333C16.9272 41.0411 17.392 43.3268 17.703 46.454C18.2 51.1669 21.5571 53.3434 25.472 53.4162C29.5406 53.485 31.0029 54.4356 32.5259 56.7577C33.0229 57.494 33.5842 57.7408 34.0168 57.846L34.2956 57.1097Z" fill="black"/>
<path opacity="0.4" d="M48.7145 34.5037C48.8075 35.0296 49.0577 36.049 49.5547 36.5426C49.7728 36.7894 49.8049 36.8581 49.6155 36.8581C49.4295 36.8581 48.0602 36.7894 48.0602 36.7894L47.6884 36.0531L48.7145 34.5037Z" fill="black"/>
</svg>
