<svg width="202" height="78" viewBox="0 0 202 78" fill="none" xmlns="http://www.w3.org/2000/svg">
<path d="M129.809 38.4646C130.274 38.4646 131.579 39.6665 133.692 39.6665H133.767C134.872 39.6524 136.177 39.2907 136.177 37.7555C136.177 34.6745 128.565 35.8764 128.565 29.7144C128.565 25.8641 131.733 24.3537 134.811 24.3537C137.607 24.3537 139.566 25.3074 139.566 26.1725C139.566 26.8816 138.758 28.4523 138.107 28.4523C137.764 28.4523 136.956 27.807 135.186 27.807C133.134 27.807 132.73 28.7607 132.73 29.3493C132.73 32.3381 140.342 31.1362 140.342 37.2698C140.342 41.613 137.267 43.0631 134.375 43.0631C130.367 43.0631 128.193 41.6449 128.193 40.7514C128.193 39.975 129.251 38.4646 129.809 38.4646ZM148.297 29.0054C152.49 29.0054 154.668 31.5014 154.668 36.0289C154.668 40.5884 152.494 43.0844 148.297 43.0844C144.099 43.0844 141.897 40.5884 141.897 36.0289C141.897 31.4694 144.103 29.0054 148.297 29.0054ZM150.721 36.1069V36.0289C150.721 33.4088 149.973 32.0544 148.297 32.0544C146.62 32.0544 145.84 33.4088 145.84 36.0289C145.84 38.649 146.616 40.0353 148.297 40.0353C149.959 40.0353 150.706 38.6774 150.721 36.1069ZM163.148 29.0054H163.259C165.111 29.0302 167.528 29.6435 167.528 30.8242C167.528 31.317 166.566 32.8274 166.13 32.8274C166.037 32.8274 165.88 32.7352 165.665 32.643L165.561 32.5898C165.097 32.3523 164.403 32.058 163.366 32.058C161.275 32.058 160.402 33.3273 160.384 35.9544V36.036C160.384 38.7164 161.192 40.0424 163.212 40.0424C164.457 40.0424 165.293 39.6736 165.79 39.4254L165.872 39.39C166.048 39.3191 166.173 39.2694 166.255 39.2694C166.845 39.2694 167.621 40.7479 167.621 41.2407C167.621 42.7192 163.86 43.0595 163.023 43.0595C158.518 43.0595 156.373 40.7798 156.373 36.0963C156.377 31.4694 158.425 29.0054 163.148 29.0054ZM169.519 24.0134C169.519 23.4674 169.97 23.1908 171.046 23.1802H171.85C172.969 23.1802 173.434 23.4567 173.434 24.0134V34.3661L173.527 34.398L176.727 29.6542C177.031 29.2358 177.538 29.1649 178.282 29.1614H179.304C180.298 29.1614 180.795 29.3138 180.795 29.562C180.795 29.679 180.713 29.8492 180.574 30.0477L176.88 35.2631L181.167 42.0101L181.274 42.2157C181.342 42.3505 181.385 42.4568 181.385 42.5632C181.385 42.8114 180.92 42.9638 179.894 42.9638H178.657C177.942 42.9532 177.427 42.8504 177.192 42.471L173.527 36.4614L173.434 36.4934V42.1306C173.434 42.6837 172.969 42.9638 171.85 42.9638H171.103C169.984 42.9638 169.519 42.6873 169.519 42.1306V24.0134Z" fill="#88CE02"/>
<path d="M13.9133 35.8162C12.3295 36.5572 8.13576 39.8828 7.32776 40.8685C6.48758 41.8541 6.24089 40.3154 7.10967 37.7556C7.79254 35.6921 9.53367 32.8876 12.4546 30.4838C14.1636 29.0975 17.9247 27.0944 20.2236 25.9244C20.6884 25.6762 26.7162 23.1518 32.0933 21.8896C32.5581 21.7656 31.5356 22.659 31.3783 23.1518C30.5703 25.4918 14.446 35.5396 14.446 35.5396L13.9133 35.8162ZM36.6267 64.0699C36.9056 65.7327 36.6589 65.8568 34.9177 66.0731C33.1766 66.2894 31.9038 65.6405 31.439 65.2115C30.9743 64.779 30.8813 63.8253 31.3461 62.9637C31.625 62.4106 31.9038 62.2227 32.0611 61.5455C32.2149 60.9003 32.34 60.7443 32.4651 60.4996C32.5903 60.2834 32.6189 60.0671 32.651 58.5567C32.6832 57.0464 32.651 54.2136 32.8048 53.0116C32.9585 51.7778 38.3356 53.5647 38.3356 53.5647C38.3356 53.5647 37.0629 56.706 36.7197 57.4789C36.3764 58.2483 36.4086 59.7267 36.4086 60.0352C36.4086 60.3436 36.2835 60.9605 36.1905 60.9889C36.0976 61.0208 36.5016 61.8221 36.3156 62.283C36.1941 62.712 36.5981 63.8217 36.6267 64.0699ZM38.6789 16.9579C38.493 15.7879 38.6789 13.4763 38.9291 13.1075C39.705 12.0581 43.8057 11.9375 44.6781 13.1678C45.0499 13.7209 45.0213 15.015 44.957 15.8482C44.8962 16.6814 44.6781 18.4683 44.6459 19.0533C44.6137 19.4858 40.109 20.163 39.1151 18.993C38.8326 18.6846 38.6789 16.9579 38.6789 16.9579ZM47.8136 61.0811C49.7084 62.4355 51.1707 62.6836 52.1324 63.1765C53.0942 63.6693 52.8475 64.623 51.2315 64.9031C49.9265 65.1513 47.8743 64.6549 46.5086 64.6549C45.1429 64.6549 42.0968 64.8074 41.2888 64.2543C40.3556 63.609 40.7596 62.4071 40.7596 62.4071C41.0099 61.7299 41.6284 60.2195 41.4425 58.9857C41.2566 57.7519 41.0063 57.0747 40.5416 55.9366C40.0768 54.795 39.7336 51.9941 40.1697 51.8381C40.6059 51.6856 40.4808 51.8381 41.0385 51.9622C41.5963 52.0863 42.2183 52.2706 43.4303 52.2706C44.6423 52.2706 45.9795 52.0863 46.4443 51.9941C46.909 51.9019 47.2844 51.8097 47.1271 52.7635C46.9734 53.7172 46.505 55.5041 46.4764 56.8939C46.4443 58.2802 46.4443 59.8827 46.5372 60.1593C46.6337 60.4323 47.3166 60.7407 47.8136 61.0811Z" fill="black"/>
<path d="M35.883 34.7997C35.883 34.7997 36.7232 34.8316 37.4669 35.0762C38.1819 35.3244 38.1819 35.4769 38.4608 35.7853C38.7396 36.0938 39.4225 36.5547 39.3009 37.0192C39.2402 37.2673 39.0829 37.3276 38.8648 37.5439C38.7718 37.6361 38.0889 38.3771 37.9316 38.4692C37.8387 38.5295 37.7135 38.6217 37.6206 38.6855C37.5276 38.7458 37.2488 38.9337 37.1558 38.994C36.8448 39.1464 36.6267 39.2422 36.287 39.2102C36.287 39.2102 35.5112 39.1783 35.0143 38.6572C35.0143 38.6572 34.9535 38.409 35.075 38.2884C35.075 38.2884 34.4208 37.7353 34.2349 37.3631C34.0489 36.9943 34.0489 36.4696 34.1741 36.1931C34.2349 35.9059 35.4469 35.1365 35.883 34.7997ZM36.6589 64.7765L36.5659 65.5459C36.5659 65.5459 36.287 65.8862 34.2063 65.8543C32.0933 65.8224 31.5356 65.1771 31.3461 64.8368L31.2209 64.0355C31.2209 64.0355 31.6249 63.4505 31.7179 63.4505C32.4008 63.5108 34.7318 64.4362 36.3478 64.6843C36.5051 64.6843 36.5337 64.7482 36.6589 64.7765ZM41.1636 63.2059C41.1636 63.5462 41.1315 63.5462 41.1315 63.8831C41.5033 64.1596 42.4364 64.3156 44.2061 64.2837C46.7839 64.2234 49.1793 65.0531 52.0967 64.5602L52.1288 64.0072L51.85 63.9752L41.5033 63.1421L41.1636 63.2059Z" fill="black"/>
<path d="M43.4339 64.2837H44.2098C45.8865 64.2234 47.4739 64.5921 49.1829 64.6843C50.0838 64.6524 51.2029 64.4361 51.1099 63.7909L42.2863 63.0499C41.7536 63.6384 42.1576 64.1312 43.4339 64.2837ZM33.3017 51.3144C33.5806 51.4988 35.4755 52.6085 38.5537 52.4561C38.493 53.0411 38.5216 54.1827 37.1558 56.1859C36.473 57.1715 35.8831 58.8981 35.7579 61.0857C35.7901 61.5785 36.069 62.0111 35.6971 62.6563C35.8223 63.057 36.3192 63.8582 36.5659 64.3511C36.8162 64.8439 36.9377 65.4005 35.2931 65.4289C33.6164 65.4608 30.9135 65.2764 31.2853 63.9823C31.4712 63.3052 32.0004 62.5961 32.0611 62.3195C32.1219 62.043 32.1219 61.2098 32.6511 60.6567C33.1158 59.1144 32.9621 57.636 32.8691 56.2497C32.7118 54.7961 32.6832 52.4844 33.3017 51.3144ZM36.1941 26.202C38.4 23.2734 36.5373 20.9334 32.9943 21.6425C31.5642 21.9191 30.1341 22.9047 30.0411 24.6916C29.5764 24.7519 28.5181 24.8157 27.989 26.7267C27.585 28.2051 27.3669 28.4817 26.6518 29.2227C26.1871 29.7474 26.684 30.8252 27.0237 31.5946C28.1749 34.2431 31.7144 34.4912 34.1062 36.4944C34.9142 36.2781 35.7543 35.3847 36.001 34.7997C33.981 32.4278 34.4172 31.5024 33.6092 30.2686C34.4851 29.9601 36.473 28.7582 36.1941 26.202Z" fill="black"/>
<path d="M40.513 52.4242C40.2949 52.7326 40.5451 53.9026 40.8562 55.0442C41.1672 56.1859 41.8501 56.8631 42.0074 58.7422C42.1611 60.5893 42.1933 60.8375 41.6642 61.9153C41.1351 62.9932 40.9813 63.9788 42.8154 64.0107C44.6495 64.0426 45.6434 63.9788 47.5061 64.2589C49.3688 64.5354 50.0231 64.6276 51.0491 64.4752C52.0752 64.3227 52.2933 63.9823 51.8571 63.6739C51.421 63.3654 49.6191 63.0286 48.8432 62.4117C48.096 61.8586 45.9831 60.9332 45.9545 60.6851C45.8615 59.8519 45.8293 56.8347 45.9866 55.8491C46.1404 54.8634 46.3584 53.4452 46.4228 53.0765C46.4836 52.7078 46.7946 52.3355 46.2691 52.4596C45.7399 52.5837 43.7521 52.8602 42.2612 52.7681C40.7597 52.6688 40.6059 52.3284 40.513 52.4242Z" fill="#88CE02"/>
<path opacity="0.3" d="M41.5677 61.9437C42.0968 62.1919 42.8726 62.3762 43.4625 62.3762C43.4625 62.3762 43.2445 63.3938 43.5877 64.0107C43.9309 64.6276 41.1029 64.2589 41.1029 64.2589L40.9778 62.0713L41.5677 61.9437ZM49.8014 64.5922C50.2984 64.4397 50.6416 63.8831 50.2376 63.3583C49.8014 62.8336 49.4296 62.7414 49.9873 62.7131C50.5451 62.6811 52.5972 63.915 52.5972 63.915L51.539 64.8687L49.8014 64.5922ZM40.42 53.6225C41.1351 53.8707 42.2219 53.931 43.1551 53.8991C44.0882 53.8671 45.4861 53.7466 46.3871 53.4382C47.288 53.1297 46.9162 53.7785 46.9162 53.7785L46.4193 54.2394C46.4193 54.2394 45.2394 54.7003 43.3124 54.672C41.0457 54.6401 40.3593 54.3954 40.3593 54.3954L40.42 53.6225ZM40.4808 55.1648C41.1959 55.413 42.2827 55.4732 43.2159 55.4413C44.149 55.4094 45.3896 55.4094 46.2905 55.0726C46.6624 54.9485 46.4443 55.4732 46.4443 55.4732L46.2905 55.7498C46.2905 55.7498 45.0785 56.1823 43.1837 56.1504C40.917 56.1185 40.513 55.9341 40.513 55.9341L40.4808 55.1648Z" fill="black"/>
<path d="M33.2399 59.8494C33.6117 60.0338 34.9489 60.3741 35.8176 60.1898C35.9428 60.1579 35.8176 58.0625 36.1609 57.1088C36.6578 55.7828 37.4658 54.7049 37.8376 52.3649C36.5327 52.2409 35.0418 51.904 34.266 51.6559C33.2721 54.673 33.6153 57.2612 33.2399 59.8494ZM35.3243 61.7888C35.5424 61.849 35.6961 62.0972 35.7604 61.9412C35.8856 61.6647 35.5423 61.1399 35.5102 60.7712V60.7393C35.2313 60.4911 33.3364 60.4628 33.458 60.5869C33.2399 60.9875 32.9003 60.9272 32.7751 61.7285C32.7143 62.1291 33.2113 61.7888 33.6761 61.7604C32.8359 62.3135 31.8742 63.0226 31.7204 63.6395C31.5345 64.501 31.8456 64.7492 32.7787 65.2101C33.5867 65.3945 34.5484 65.4264 35.2957 65.3945C36.1358 65.242 36.2896 64.8414 36.0429 64.2848C35.6639 63.4551 35.4172 62.3738 35.3243 61.7888Z" fill="#EFEFEF"/>
<g clip-path="url(#clip0_1_193)">
<path d="M71.1147 24.414C73.7246 24.414 76.1486 25.3394 76.1486 26.0485C76.1486 26.481 75.5909 27.5588 75.2477 27.5588C74.9688 27.5588 73.6925 26.4172 71.1469 26.4172C66.4848 26.4172 64.9653 29.0975 64.9653 33.657C64.9653 37.6634 66.1773 41.0528 70.868 41.0528H71.0468C72.3518 41.0386 73.6031 40.8933 74.2538 40.716V35.4475H71.1791C70.8073 35.4475 70.6499 35.1993 70.6499 34.6781V34.2455C70.6499 33.6925 70.8037 33.4762 71.1791 33.4762H75.809C76.3667 33.4762 76.5848 33.7244 76.5848 34.2455V41.1769C76.5848 42.6554 73.7246 43.056 70.7107 43.056C65.4587 43.056 62.5699 40.1275 62.5699 33.9052C62.5735 27.3709 65.616 24.414 71.1147 24.414ZM79.3199 42.3788V33.1961C79.3199 31.0653 79.016 30.0477 79.0088 29.9059V29.9024C79.0088 29.4095 80.0957 29.2855 80.4389 29.2855C81.061 29.2855 81.2147 30.3314 81.372 31.0121C82.273 29.7499 83.3313 29.0408 84.4181 29.0408C85.4442 29.0408 85.9412 29.4734 85.9412 30.0584C85.9412 30.5512 85.7231 31.4765 85.412 31.4765C85.0688 31.4765 84.8543 31.2 83.9533 31.2C82.5876 31.2 81.5293 32.8025 81.5293 32.8025V42.3859C81.5293 42.7546 81.2183 42.9709 80.4747 42.9709H80.3817C79.6309 42.9638 79.3199 42.7475 79.3199 42.3788ZM93.1452 29.0373C96.7491 29.0373 98.5831 31.4092 98.5831 35.8481C98.5831 36.1565 98.0254 36.9259 97.7144 36.9259H89.3877C89.6058 39.8225 90.8464 41.1485 93.4563 41.1485C95.7552 41.1485 97.0279 40.0388 97.3104 40.0388C97.6822 40.0388 98.2435 41.0564 98.2435 41.3329C98.2435 41.9498 96.1627 42.9957 93.4885 42.9957C89.1517 42.9957 87.0674 40.8224 87.028 36.2345V36.0963C86.9923 31.5014 89.1052 29.0373 93.1452 29.0373ZM96.2235 35.0752C96.2235 32.3345 95.1652 30.9447 93.0559 30.9447C90.757 30.9447 89.545 32.331 89.3591 35.0752H96.2235ZM106.817 29.0373C110.421 29.0373 112.255 31.4092 112.255 35.8481C112.255 36.1565 111.697 36.9259 111.386 36.9259H103.059C103.277 39.8225 104.518 41.1485 107.132 41.1485C109.43 41.1485 110.703 40.0388 110.986 40.0388C111.357 40.0388 111.919 41.0564 111.919 41.3329C111.919 41.9498 109.838 42.9957 107.164 42.9957C102.784 42.9957 100.7 40.7763 100.7 36.0927C100.696 31.5014 102.777 29.0373 106.817 29.0373ZM109.924 35.0752C109.924 32.3345 108.869 30.9447 106.756 30.9447C104.457 30.9447 103.245 32.331 103.059 35.0752H109.924ZM114.647 42.315V33.033C114.632 31.0156 114.343 30.0442 114.336 29.9059V29.9024C114.336 29.4095 115.422 29.2855 115.766 29.2855C116.388 29.2855 116.541 30.3314 116.699 31.0121C117.818 29.7783 119.341 29.0408 120.8 29.0408C123.502 29.0408 125.086 30.6434 125.086 33.2635V42.3221C125.086 42.6908 124.775 42.9071 124.028 42.9071H123.935C123.188 42.9071 122.877 42.6908 122.877 42.3221V33.4478C122.877 31.8453 121.915 30.9199 120.174 30.9199C118.994 30.9199 117.718 31.629 116.849 32.7387V42.3221C116.849 42.6908 116.538 42.9071 115.791 42.9071H115.698C114.958 42.9 114.647 42.6873 114.647 42.315Z" fill="#262626"/>
<path d="M41.1637 20.0378C37.7458 22.9664 31.1281 23.7677 21.3105 27.5258C18.7935 28.4796 12.0829 31.3478 10.4669 34.3367C15.9048 31.2238 17.9248 35.5067 18.3574 39.9137C18.7614 44.0441 20.8421 46.1998 26.1871 46.0757C31.6858 45.9516 33.3661 49.1248 34.8856 52.8546C37.8387 38.5877 42.5616 35.8151 45.6041 33.3829C52.0717 28.1747 44.1168 18.9919 41.1637 20.0378Z" fill="#88CE02"/>
<path d="M41.1637 20.0378C32.9621 22.8742 24.85 23.5798 15.3113 29.4049C13.0446 30.7912 8.25735 33.9325 7.32422 39.942C10.8029 36.12 18.8507 31.3159 28.7005 28.2633C33.6736 26.721 37.306 25.707 41.7178 24.0123C41.414 22.041 41.414 21.2717 41.1637 20.0378Z" fill="#88CE02"/>
<path d="M51.6355 36.9234C51.6355 36.9234 51.0456 38.9266 49.8658 39.5719C49.8658 39.5719 48.997 39.8803 47.2559 38.9266C46.7589 38.6501 46.3871 37.6928 46.4157 37.3843C46.4479 36.6433 46.9126 36.3065 46.9126 36.3065C46.9126 36.3065 47.4096 35.4734 47.9995 35.5053C48.5894 35.5372 49.5833 35.6293 49.8944 35.3528C50.1732 35.0443 51.6963 35.9059 51.6355 36.9234ZM38.9578 17.544C38.9578 17.544 38.8326 19.1146 38.6145 20.1003C38.5824 20.2846 37.6528 20.3768 36.9664 20.6533C38.2713 24.3513 46.1332 24.3193 47.1593 22.5005C46.6624 22.1602 45.6685 21.639 45.2037 21.4546C44.7389 21.2703 44.7675 21.3022 44.7389 20.4371C44.7067 19.5755 44.6459 17.973 44.5852 17.5404C44.5208 17.1114 39.705 17.1114 38.9578 17.544Z" fill="black"/>
<path d="M39.2688 17.544C39.2688 17.544 39.2688 18.4374 39.1759 19.299C39.1437 19.6996 39.1151 19.9443 39.0507 20.2527C39.0186 20.4371 40.1054 21.1781 40.4165 22.809C41.9074 26.1063 45.3574 24.4718 46.7875 22.9012C46.2906 22.5608 45.4826 22.0999 44.5494 21.7312C44.0847 21.5468 44.2992 21.1462 44.2706 20.2846C44.2384 19.4231 44.1168 18.1573 44.0525 17.6964C43.9917 17.2355 40.0161 17.1114 39.2688 17.544Z" fill="#EFEFEF"/>
<path d="M38.9578 17.544C38.9578 17.544 38.9256 18.0971 38.8326 18.7459C39.2366 19.1465 39.7658 19.6996 40.1698 20.04C40.4486 20.2882 41.1315 20.2563 41.7536 20.2563C42.3113 20.2563 42.8083 20.3165 43.0264 20.196C43.5233 19.9478 44.2384 19.3344 44.6424 18.87C44.6102 18.3169 44.5816 17.7922 44.5494 17.544C44.5208 17.1114 39.705 17.1114 38.9578 17.544Z" fill="black"/>
<path d="M41.7857 19.884C41.4139 19.884 40.9777 19.8521 40.6345 19.7918C40.4808 19.7599 40.3235 19.6677 40.1983 19.6074C39.9802 19.455 39.7622 19.2671 39.5155 19.0827C39.0185 18.714 38.9863 18.4977 38.9863 18.4055C39.2044 16.4626 38.9256 14.8317 38.9256 14.8317C38.9256 14.8317 38.7075 13.9985 39.8873 13.7823C41.0671 13.566 41.7822 13.5341 41.7822 13.5341C41.7822 13.5341 42.5294 13.5341 43.677 13.7823C44.8568 13.9985 44.6388 14.8317 44.6388 14.8317C44.6388 14.8317 44.3599 16.4662 44.578 18.4055C44.578 18.4977 44.5458 18.714 44.0488 19.0827C43.6127 19.3912 43.273 19.728 42.9298 19.7918C42.5937 19.8556 42.1576 19.884 41.7857 19.884Z" fill="black"/>
<path d="M41.7858 12.7363C39.7336 12.7363 39.3296 13.2894 38.7397 13.9063C38.6146 14.0588 38.7075 14.9842 38.9256 16.9554H39.2045C39.2045 16.9554 39.0185 16.4023 39.0507 15.7535C39.0829 15.1083 39.2045 15.1366 39.1115 14.9842C38.9864 14.7998 38.7397 14.4913 39.2974 14.1829C39.8552 13.8744 40.7275 14.4311 41.7822 14.4594C42.8369 14.4275 43.7378 13.8744 44.2992 14.1829C44.8569 14.4913 44.6102 14.7998 44.4851 14.9842C44.3599 15.1685 44.5172 15.1083 44.5458 15.7535C44.578 16.3988 44.3921 16.9554 44.3921 16.9554H44.671C44.8569 14.9842 44.982 14.1191 44.8891 13.9666C44.3635 13.2894 43.8344 12.7683 41.7858 12.7363ZM51.6355 37.0156C51.6355 37.0156 51.0456 38.8947 49.8944 39.5435C49.6441 39.4194 49.6763 39.2351 49.4582 38.9585C49.3974 38.8663 49.1793 38.8061 49.0864 38.7103C48.9934 38.6182 49.0256 38.4622 48.8683 38.3416C48.7432 38.2175 48.6502 38.3097 48.5251 38.2175C48.3999 38.0934 48.3713 37.941 48.2748 37.8488C48.214 37.7885 47.9638 37.7566 47.903 37.6963C47.7492 37.5439 46.3799 37.2638 46.4443 36.9553C46.5694 36.4944 46.8161 36.1541 46.8161 36.1541C46.8161 36.1541 47.406 35.2925 47.9959 35.3209C48.5858 35.3528 49.1472 35.4733 49.4546 35.1968C49.8014 34.8919 51.7285 36.03 51.6355 37.0156Z" fill="black"/>
<path d="M47.5955 23.3975C47.5955 23.3975 49.5511 22.9366 50.8883 24.1988C52.2254 25.4929 52.1324 27.0954 51.7284 28.0811C52.0717 28.4817 52.6902 29.5914 52.2254 30.9174C54.2776 32.6441 53.3766 35.2925 51.5425 37.0475C51.5425 37.0475 51.1063 35.445 49.3688 35.3528C49.4296 34.7359 47.7528 34.2431 48.5286 32.6405C47.3488 32.364 47.3774 31.5627 47.1915 30.5771C47.0377 29.5914 47.5955 23.3975 47.5955 23.3975Z" fill="black"/>
<path d="M46.8804 24.2591C46.8804 24.2591 49.1471 23.1174 50.4843 24.4115C51.8214 25.7056 51.446 27.1238 51.042 28.1094C51.3852 28.5101 52.1932 29.6517 51.6927 31.0061C51.5997 31.3145 50.9169 31.3145 50.4199 32.1158C51.6641 31.4067 52.4399 31.5911 52.7188 32.4845C53.1549 33.8708 52.1896 35.5336 51.353 36.459C51.353 36.4271 51.3209 36.3987 51.3209 36.3668C51.1957 36.8277 51.042 37.7212 50.1089 38.7068C49.6441 39.1996 49.2687 39.1393 48.7431 39.0152C48.121 38.8628 47.9029 38.5827 47.0342 38.1218C46.5372 37.8452 46.8161 37.5049 46.8161 37.2283C46.8161 37.1681 46.8769 37.0759 46.9698 36.9518C47.0306 36.7993 47.2201 36.5512 47.499 36.2746C47.499 36.2746 47.9029 35.7215 48.4929 35.7499C49.0828 35.7818 49.7049 35.6577 49.8586 35.5017C49.8586 34.4239 48.6144 34.392 49.0506 32.5448C49.0828 32.4526 49.2365 32.2966 49.7335 32.2363C48.9862 32.0839 48.6466 32.052 48.1175 31.5592C47.7456 31.2188 47.4668 30.7898 47.3702 30.2331C47.1915 29.283 46.8804 24.2591 46.8804 24.2591Z" fill="#EFEFEF"/>
<path d="M40.3235 22.3197C40.1376 22.0715 39.1723 20.8413 37.3418 20.3484C36.8126 20.196 36.473 20.625 35.9439 20.9334C35.7901 20.8413 35.1037 20.5328 34.7319 20.7491C34.36 20.9653 34.1098 21.1816 33.7379 21.3341C33.552 21.2419 33.0551 21.2419 32.6511 21.3943C32.2471 21.5184 31.625 21.795 31.0351 22.5963C30.6633 23.9223 37.6206 22.9366 37.6206 22.9366L40.3235 22.3197Z" fill="black"/>
<path d="M40.3878 22.3197C39.3939 21.9793 39.5476 20.8412 37.3417 20.6569C36.9055 20.625 36.6267 20.9653 36.3156 21.1816C36.4694 21.3341 36.6267 21.5822 36.7196 21.8269C36.4408 21.5184 35.9438 21.1178 35.4469 21.0256C34.9821 20.9334 34.671 21.2738 34.1741 21.5184C34.267 21.6106 34.36 21.7666 34.4851 21.951C34.0489 21.6744 33.7379 21.5822 33.148 21.7985C32.744 21.9226 31.9682 22.2594 31.3783 23.0926C31.0064 24.4186 37.6563 22.9402 37.6563 22.9402L40.3878 22.3197Z" fill="#88CE02"/>
<path d="M46.2298 22.8125C46.2298 22.8125 46.2298 22.4722 46.1976 22.1673C46.1976 22.107 45.9473 21.951 45.9473 21.8907L45.8865 21.8304C45.8865 21.8304 46.3835 21.5539 46.7553 21.7063C47.1593 21.8304 47.3774 22.3516 47.3774 22.3516C48.0925 22.1034 48.1532 22.3835 48.4964 22.7523C49.2437 22.5998 49.3366 22.8763 49.8014 23.5535C49.8014 23.5535 49.2437 23.4613 48.1532 23.6457C47.0985 23.7982 46.2298 22.7806 46.2298 22.8125Z" fill="black"/>
<path d="M46.1046 22.6565C46.1046 22.6565 46.2905 22.5041 46.2298 22.4721C46.573 22.2878 47.0378 22.0715 47.2558 22.6565C47.9709 22.4083 48.0638 22.7487 48.4071 23.1174C49.2758 22.7168 49.3402 23.2096 49.401 23.4259C49.1221 23.4259 48.7181 23.4578 48.1568 23.5181C47.0985 23.6741 46.0724 22.6281 46.1046 22.6565Z" fill="#88CE02"/>
<path d="M35.5399 21.8872C35.5399 21.8872 37.3096 22.5041 38.8041 22.4119C40.2949 22.2878 42.8441 22.1637 44.2098 22.965C44.2098 22.965 45.6077 22.4722 46.9127 22.8125C48.2176 23.1529 50.6094 25.3688 49.8944 27.7123C49.8336 27.8648 49.4296 28.113 48.9613 28.2654C48.9613 28.2654 49.2115 29.3113 48.7753 30.1764C48.3392 31.0096 47.3774 32.6122 47.3453 34.8281C47.3131 35.1968 47.2523 35.9697 47.1915 36.3384C44.7675 36.2462 41.0386 35.3528 37.374 35.4131C37.4061 35.0124 37.4347 34.7678 37.4669 34.3672H37.5599C37.374 33.3496 37.3096 32.8249 37.1237 32.0555C35.9439 31.3145 34.6997 30.453 33.645 28.8185C32.6189 27.1876 35.5399 21.8872 35.5399 21.8872ZM47.5347 38.526C47.5347 38.526 49.4618 45.3652 47.1915 48.2334C47.1915 48.2334 47.5347 49.5594 46.7553 50.9741C46.6302 51.591 46.4765 52.1441 46.3835 52.761C45.9795 55.3173 45.2967 56.3951 45.1107 60.4936L43.2481 60.4617C43.2481 60.4617 43.03 57.5048 42.3793 55.9306C42.0075 55.0372 40.5452 53.8353 40.6095 52.6333C40.6703 51.708 40.8598 50.9386 42.4436 49.7048C42.5688 47.9179 40.7669 46.2232 41.0457 39.5683L47.5347 38.526Z" fill="black"/>
<path d="M46.9734 38.2494C47.4704 41.3907 48.6216 46.0459 46.5372 48.3256C46.6302 48.7582 46.691 49.3751 46.5694 50.0806C46.5086 50.4493 46.3835 50.85 46.2262 51.2825C45.9151 52.0235 45.79 53.1013 45.6971 53.7466C45.2931 56.3029 45.2931 56.427 45.1071 60.5255L43.2444 60.4936C43.2444 60.4936 43.0264 57.5367 42.3757 55.9661C42.0039 55.0726 41.2245 54.3033 41.1637 53.1013C41.1029 52.176 41.7536 50.3288 43.3088 50.3891C43.2159 46.6593 41.4747 47.4003 41.0099 39.6357L46.9734 38.2494ZM35.5398 21.8872C35.5398 21.8872 36.2227 22.1034 36.9699 22.1637C37.7172 22.224 38.5252 22.1637 39.2366 22.1318C40.7275 22.0077 42.8404 21.8553 44.2384 22.6565C44.2384 22.6565 45.0142 22.4083 45.8544 22.4722C46.2262 22.5041 46.6016 22.8125 47.0342 22.9331C48.3999 23.2734 49.7049 25.5213 49.115 27.5563C49.0542 27.7088 48.618 27.5563 48.1211 27.7088C48.214 28.1413 48.2748 29.127 47.7778 30.1729C47.2487 31.2223 46.5658 32.5767 46.691 35.1649C43.4268 35.0124 41.9681 34.7962 38.7361 34.6402C38.4572 33.4985 38.2713 32.3604 38.2391 31.7754C38.6753 31.5592 38.922 31.3748 39.2652 31.0061C38.3321 31.1585 37.9603 31.0983 37.4025 30.7898C36.8448 30.4813 35.8473 29.4957 35.3504 28.8504C35.2896 28.7902 34.9464 29.8042 34.1705 29.8361C33.8917 29.4354 35.0715 28.2938 34.8534 27.8648C34.0812 26.2942 35.5398 21.8872 35.5398 21.8872Z" fill="#EFEFEF"/>
<path d="M47.2237 35.6896C47.2237 35.6896 47.2844 36.7993 47.2844 37.0759C47.2844 37.3843 47.5347 38.3097 47.5633 38.7387C47.2201 39.3237 45.7292 40.6497 43.0264 41.1425C40.3557 41.6956 36.8126 37.5368 36.8126 37.5368C36.9056 37.1362 37.2166 35.9662 37.4347 35.3493C37.4669 35.289 37.5277 35.133 37.5277 35.0727C37.8101 34.6756 47.2237 35.6896 47.2237 35.6896Z" fill="black"/>
<path d="M46.5408 35.7853C46.5408 36.5547 46.666 37.1113 46.7589 37.6042C46.9126 38.4976 47.1629 39.0826 47.1629 39.6676C47.1629 41.4545 44.8033 41.1461 42.8119 41.2099C40.1412 41.763 37.8709 37.6042 37.8709 37.6042C38.0568 36.8951 38.182 36.0938 38.4608 35.4166C38.493 35.0479 38.5538 34.5834 38.586 34.3707C42.3757 34.3707 45.05 34.587 46.6016 34.7394C46.6624 35.0762 46.6016 35.6612 46.5408 35.7853Z" fill="#EFEFEF"/>
<path d="M43.5555 39.7598C43.5555 39.7598 41.9073 36.1257 36.9699 37.2035C35.7901 40.5008 34.2063 44.2909 35.2288 48.3894C34.2027 49.7757 33.0229 50.5451 33.0229 53.1049C33.0229 55.6612 33.148 56.0937 33.148 56.0937L36.784 56.2781C36.784 56.2781 37.9638 54.7677 38.4322 53.1368C38.5573 52.6759 38.6825 51.8427 38.5859 50.889C38.7111 50.7046 39.2366 50.2721 39.301 49.4424C39.301 49.4424 41.0707 48.5171 42.0968 46.2693C43.0585 44.2271 42.8118 42.4685 43.5555 39.7598Z" fill="black"/>
<path d="M43.5555 39.7598C43.4626 39.4194 42.2184 36.0938 37.6206 37.0794C34.9178 44.2271 35.9117 47.1875 36.3157 48.4816C34.4816 50.7933 33.645 51.2861 34.0168 55.9696H36.4408C37.5599 54.2146 37.8066 53.5658 37.8709 51.2542C37.8709 51.162 37.5277 51.4385 37.281 51.747C37.4669 50.7933 37.996 50.6053 38.4 50.0203C38.586 49.7722 38.7433 49.4034 38.7433 48.9106C40.917 47.4641 41.725 45.6452 42.1934 43.7662C42.5616 42.4685 42.9978 40.3448 43.5555 39.7598Z" fill="#EFEFEF"/>
<path d="M35.7579 26.0176C35.883 25.8333 36.1011 25.4326 36.1941 25.2766C36.2263 25.2447 36.5659 25.8297 36.5981 25.8013C37.4383 24.447 37.6528 22.4722 36.691 22.2878C36.473 22.2559 36.069 22.1637 35.7293 22.0396C35.1072 21.8233 34.5495 21.8233 33.5556 22.0077C32.1898 22.2559 30.8205 23.2415 30.8205 24.6562C30.8205 24.7483 31.7823 25.0249 32.0647 26.1665C31.5999 25.5177 30.7919 24.8122 29.8266 25.4255C28.8005 26.0708 29.3297 27.5528 27.9639 29.0915C27.4992 29.6163 27.5599 30.2332 28.0569 31.4634C28.8649 33.4063 32.6868 34.4523 34.7676 36.2994C35.2645 36.0832 35.6078 35.5903 35.8544 35.2216C34.4565 33.7751 33.8952 32.4172 33.4948 31.4315C32.9978 30.2899 32.4365 29.6446 31.3497 28.7831C31.9074 28.9993 32.3436 29.2156 32.5938 29.4C32.8727 29.5843 33.2767 29.6163 33.6521 29.4922C34.9821 29.0348 35.6971 27.1876 35.7579 26.0176Z" fill="#EFEFEF"/>
<path d="M49.2723 26.5104C49.1793 27.6804 48.3105 27.0954 47.8422 26.8792C46.9091 26.4785 45.9795 26.202 44.8891 26.202C43.7986 26.202 42.4043 26.2942 41.1923 26.6026C39.5155 27.0635 39.0185 27.0352 38.2713 26.6629C37.5241 26.2622 36.2191 25.2766 36.2191 25.2766C36.2191 25.2766 36.187 25.5851 36.498 25.9857C36.902 26.4785 37.803 27.0954 39.015 27.4961C39.6049 27.6804 40.0732 27.5563 40.5988 27.4358C43.3624 26.7586 46.2834 26.6345 48.7396 28.113C48.8647 28.1732 49.2973 27.9889 49.4868 27.7123C49.7406 27.3117 49.2723 26.5104 49.2723 26.5104Z" fill="black"/>
<path d="M35.1359 38.2494C35.3861 38.4019 35.6936 38.4976 36.0368 38.7742C36.0368 38.7742 35.758 38.7741 35.6328 38.6501C35.4791 38.5579 35.168 38.2813 35.1359 38.2494Z" fill="#001423"/>
<path d="M44.1168 13.8142C44.0239 13.5376 43.341 13.0448 41.7572 13.0448C40.0482 13.0448 39.5513 13.5695 39.5191 13.8461C39.5191 13.9383 39.394 14.9239 39.3654 15.3245C39.3654 15.3245 39.3654 15.8173 39.3975 16.5583C39.4297 17.0512 39.5513 17.3277 39.6156 17.9765C39.6764 18.6537 39.8659 19.0863 40.2055 19.6393C40.3593 19.7315 40.4844 19.8237 40.6417 19.8556C41.2638 19.9797 42.3507 20.0081 42.9406 19.8556C43.2838 19.7634 43.7164 19.1784 43.8094 18.6537C43.9345 18.0084 44.0596 17.544 44.0882 17.1433C44.149 16.7427 44.1812 15.8493 44.2134 15.6011C44.3027 14.9239 44.1454 13.878 44.1168 13.8142Z" fill="#EFEFEF"/>
<path d="M40.8526 51.8994C40.8526 51.8994 42.5008 52.6085 46.5694 51.9916C46.5694 51.9916 45.4182 57.7211 45.9473 60.5893C45.9473 60.5893 46.4764 61.3303 50.3913 62.745C50.3913 62.745 52.1324 63.1775 52.0681 64.0391C52.0681 64.0391 52.1289 64.2234 50.0159 64.1632C47.9029 64.1029 45.9151 63.7306 44.5172 63.7306C43.1193 63.7306 41.6284 63.7909 41.3782 63.3902C41.0993 63.0215 41.4389 62.0643 41.8429 61.5112C42.2791 60.9262 42.154 60.4936 42.1218 59.4477C42.0324 56.7071 39.9195 53.8707 40.8526 51.8994Z" fill="black"/>
<path d="M38.4286 33.5659C38.4286 33.7822 40.8526 34.9841 42.1897 35.2287C43.5269 35.4769 46.3227 35.2287 46.7589 35.1365L46.6981 35.5691C46.6981 35.5691 43.3731 36.0619 40.8276 35.3847C38.2784 34.7075 38.5609 34.5515 38.5609 34.5515L38.4286 33.5659Z" fill="black"/>
<path d="M35.665 21.7631C36.691 22.3481 38.1211 22.1956 38.6467 22.1637C38.7718 22.1637 40.0124 21.9474 40.0768 21.9793C40.2019 22.0112 40.2019 22.1034 40.2019 22.1034C40.2019 22.1034 39.7371 22.3516 38.6789 22.4119C37.685 22.4722 36.5051 22.4119 35.8509 22.1034C35.075 21.7631 35.665 21.7631 35.665 21.7631ZM46.2297 22.3481C46.4157 22.4722 47.6277 22.9331 48.1568 23.4897C48.6216 23.9825 48.3749 23.9506 48.2819 23.8301C48.1568 23.6776 47.1951 23.0288 46.8232 22.8763C46.4514 22.7239 45.983 22.4438 45.983 22.3835C45.983 22.3232 46.2297 22.3481 46.2297 22.3481Z" fill="black"/>
<path d="M35.5077 35.1365C36.4087 35.0762 37.3418 35.289 37.9317 35.9059C38.2427 36.2143 38.7397 36.5512 38.6789 36.8596C38.6789 36.9518 38.493 37.2 38.3357 37.3843C38.2427 37.5084 37.9639 37.785 37.8709 37.8772C37.7458 37.9693 37.3132 38.3097 37.2202 38.37C37.1273 38.4303 37.0021 38.5862 36.9092 38.6182C36.5981 38.7706 36.2585 38.6501 35.9474 38.4941C35.6364 38.3416 36.0082 38.3097 35.6686 38.0615C34.8284 37.4765 34.3636 37.0759 34.7068 35.9342C34.7319 35.7215 35.0751 35.4769 35.5077 35.1365Z" fill="#EFEFEF"/>
<path opacity="0.4" d="M27.585 28.08C24.7892 29.1897 17.6745 32.7033 15.6545 33.7811C17.3313 34.827 18.1107 37.3549 18.3573 39.9112L18.4503 40.6203C18.4825 40.8366 18.5111 40.989 18.5433 41.0812C18.5433 41.1131 18.5433 41.1734 18.5754 41.2053C20.4095 36.2452 26.9629 31.005 27.2132 30.6044C27.3383 30.42 27.0594 29.6187 27.492 28.8494C28.0533 27.8637 29.1402 27.4347 27.585 28.08ZM34.2349 51.3453C35.665 48.5089 35.6936 45.8002 35.665 42.627C35.665 41.301 36.6267 39.4219 36.1298 39.9466C34.2671 42.0101 29.5728 45.8924 26.1871 46.1086C30.9421 45.9526 32.8048 48.3246 34.2349 51.3453Z" fill="black"/>
<path d="M12.9194 36.4012C14.6892 35.139 23.856 30.2995 26.0619 29.6223C28.2679 28.9132 27.585 28.08 27.585 28.08C27.585 28.08 18.6362 31.902 13.2913 35.1993" fill="black"/>
<path opacity="0.4" d="M39.0185 27.495C38.3035 27.2185 37.7457 28.0481 37.9317 28.8494C38.1176 29.6506 39.7943 30.5441 39.7014 33.4726C39.6406 35.8765 39.1115 36.8621 39.1115 36.8621L37.9317 35.3836C37.9317 35.3836 37.7457 32.0545 37.3417 31.5616C36.9377 31.0688 35.665 30.1754 35.168 29.7144C34.6711 29.2535 35.7257 28.6366 35.665 27.7715C35.6042 26.9384 36.1941 25.2755 36.1941 25.2755L39.0185 27.495ZM43.3374 40.6203C43.2766 42.9319 43.8022 46.3497 44.0203 47.9842C44.2383 49.6186 44.5172 49.7392 44.0203 50.4802C43.5233 51.1893 42.869 52.3593 42.869 52.3593L40.7239 52.1749C40.7239 52.1749 42.4329 50.0193 42.5258 49.6186C42.6188 49.218 41.657 46.1689 41.657 46.1689L43.3374 40.6203ZM39.208 19.0533C39.6442 20.007 40.1697 20.4395 41.0099 20.7161C41.5069 20.9004 43.4661 21.1486 44.2419 20.2835C44.5851 19.8829 44.3671 18.8051 44.3671 18.8051L42.5973 20.2233L40.2055 19.7907L39.9266 19.0816L39.208 19.0533Z" fill="black"/>
<path d="M39.3939 21.177C40.2019 21.7017 42.2219 22.1945 42.7797 22.2867C43.3374 22.4108 44.2384 21.7017 44.6745 21.5174C45.1393 21.3011 45.9473 21.177 46.8805 22.0102C46.9734 22.1024 46.6624 22.503 46.6624 22.503C46.6302 22.4711 46.4443 22.4711 46.1976 22.3505C45.9473 22.2265 45.7328 22.1343 45.3574 22.1662C43.8022 22.3506 43.5555 22.8753 42.1898 22.5668C40.824 22.2584 40.4808 22.0137 39.1437 22.074" fill="#88CE02"/>
<path d="M39.3939 21.177C40.2019 21.7017 42.2219 22.1945 42.7797 22.2867C43.3374 22.4108 44.2384 21.7017 44.6745 21.5174C45.1393 21.3011 45.9473 21.177 46.8805 22.0102C46.9734 22.1024 46.6624 22.503 46.6624 22.503C46.6302 22.4711 46.4443 22.4711 46.1976 22.3505C45.9473 22.2265 45.7328 22.1343 45.3574 22.1662C43.8022 22.3506 43.5555 22.8753 42.1898 22.5668C40.824 22.2584 40.4808 22.0137 39.1437 22.074" stroke="black" stroke-width="1.586" stroke-linejoin="round"/>
<path d="M39.1115 21.2727C40.1376 21.7053 42.1254 22.1662 42.6831 22.2903C43.2408 22.4144 44.1418 21.8577 44.578 21.5812C45.3538 21.0884 46.3477 21.489 46.8161 22.0137C47.1271 22.3541 47.2522 22.5668 47.2522 22.659C47.2522 22.7831 46.8804 22.659 46.8804 22.659C46.6623 22.5668 46.4156 22.5349 46.2297 22.4108C45.9795 22.2867 45.7328 22.1024 45.361 22.1343C43.8057 22.3186 43.4983 22.8434 42.1611 22.5349C40.824 22.2265 40.4843 21.9499 39.0543 22.0421" fill="#88CE02"/>
<path d="M34.2956 50.0512C34.2349 49.9909 34.3564 49.9271 34.2956 49.9271C33.8916 49.9271 33.3339 49.6186 33.0229 49.1861C31.6857 47.2751 29.7301 46.0129 26.187 46.1051C20.8743 46.2292 18.7613 44.07 18.3573 39.9431C18.1392 37.6953 17.5171 35.5077 16.2444 34.2739L15.4971 34.7348C16.9272 35.9686 17.392 37.9718 17.703 40.7125C18.2 44.8429 21.5571 46.7504 25.472 46.8142C29.5406 46.8745 31.0029 47.7076 32.5259 49.7427C33.0229 50.388 33.5842 50.6043 34.0168 50.6965L34.2956 50.0512Z" fill="black"/>
<path opacity="0.4" d="M48.7145 30.2392C48.8075 30.7001 49.0577 31.5935 49.5547 32.0261C49.7728 32.2424 49.8049 32.3026 49.6155 32.3026C49.4295 32.3026 48.0602 32.2424 48.0602 32.2424L47.6884 31.5971L48.7145 30.2392Z" fill="black"/>
</g>
<defs>
<clipPath id="clip0_1_193">
<rect width="176.258" height="59.5636" fill="white" transform="translate(5.00531 4.96364)"/>
</clipPath>
</defs>
</svg>
